<svg width="255" height="273" viewBox="0 0 255 273" fill="none" xmlns="http://www.w3.org/2000/svg">
<path d="M-25.3108 37.2743C-19.7098 32.1037 -12.3855 26.9332 -8.93874 25.6405C-5.492 24.3479 3.98651 23.0552 11.3108 23.0552C19.066 22.6243 29.8371 24.7787 35.0072 27.364C40.6081 29.9493 48.7942 35.1199 53.1026 38.567C57.411 42.014 71.1979 45.4611 83.2615 46.3229C100.495 47.6155 107.819 50.6317 117.298 60.1111C123.761 66.5743 130.654 77.7773 132.808 85.1023C134.532 92.4273 135.393 105.785 134.532 115.264C133.239 127.329 134.963 134.654 139.702 138.963C143.149 142.41 147.457 153.182 148.75 162.661C150.904 174.295 149.18 184.205 144.441 194.115C140.564 201.44 132.378 211.782 125.484 216.521C119.021 221.692 110.405 225.57 106.096 225.139C101.788 225.139 96.6176 230.741 93.1709 239.358C90.155 246.683 81.1073 257.455 73.783 263.057C63.8736 269.52 53.9642 272.536 39.3156 272.536C24.667 272.536 15.1885 269.52 4.84824 261.764C-5.06113 254.008 -14.5397 250.992 -28.3266 250.992C-44.2678 250.992 -50.2996 248.407 -64.0866 236.342C-79.166 222.123 -80.0277 219.968 -80.0277 194.115C-80.4586 176.88 -83.0436 163.092 -87.3521 156.198C-91.2297 150.166 -95.538 140.686 -97.2614 134.654C-98.9848 128.191 -97.6923 116.557 -93.3839 105.785C-89.0754 93.72 -81.3202 84.2405 -72.7034 78.639C-64.9482 73.8993 -55.4697 70.4522 -52.023 70.4522C-48.5762 70.4522 -42.9753 64.8508 -40.3902 58.3876C-37.3743 51.9243 -30.4809 42.014 -25.3108 37.2743Z" fill="#F6EEC6"/>
<path d="M-14.9706 48.4771C-10.6621 44.5992 -4.19946 40.2904 -0.752716 38.9977C2.69402 37.7051 8.72581 36.4124 12.1725 36.4124C15.6193 35.9815 25.0978 39.8595 32.853 44.5992C40.6081 49.3389 46.64 54.9404 46.64 57.5257C46.64 59.6801 55.6876 61.4036 67.3203 60.9727C80.2456 60.1109 91.8784 62.6963 99.6335 67.436C106.096 71.3139 113.851 79.5006 116.867 85.9639C120.745 94.1506 120.745 101.476 117.729 113.971C113.851 128.19 114.713 132.068 122.899 142.409C128.931 149.734 132.808 160.507 132.808 170.417C132.808 182.051 129.793 189.807 122.037 197.562C116.006 203.595 105.235 209.627 97.9102 211.351C88.4317 213.505 82.8307 218.676 79.3839 227.724C76.368 234.618 68.6129 244.959 61.2886 250.561C54.3951 255.732 44.9166 260.04 40.1773 260.04C35.438 260.04 26.8212 256.593 20.7894 252.715C14.7576 248.837 8.72578 242.805 7.00241 239.789C4.8482 235.911 -4.19948 234.618 -19.7098 235.049C-37.8052 235.911 -44.6987 234.618 -52.023 227.724C-57.1931 222.984 -63.2249 214.367 -65.8099 208.334C-69.2567 200.579 -69.2567 192.823 -65.8099 181.189C-61.5015 166.539 -61.9324 163.954 -71.8417 152.32C-77.8735 144.564 -82.6128 133.792 -82.6128 126.467C-82.6128 119.142 -80.0277 108.801 -76.581 102.768C-72.7034 95.8742 -63.6557 89.8418 -52.023 86.3948C-38.236 82.5168 -32.2042 77.7771 -28.3267 68.2977C-25.3108 60.9727 -19.279 51.9242 -14.9706 48.4771Z" fill="#E49E28"/>
<path d="M-7.64618 122.158C-3.33776 116.557 4.41735 110.955 9.58746 108.801C14.7576 107.077 23.3744 105.354 28.5445 105.354C34.1454 104.923 47.545 108.394 56.1619 117.012C65.2096 126.06 68.6129 139.393 68.6129 145.857C68.6129 151.889 65.1661 162.23 60.8577 169.555C56.9801 176.449 48.7941 184.636 42.7623 187.221C36.7305 189.807 26.8211 190.668 19.9277 189.376C13.465 188.083 3.12487 182.481 -2.90693 176.88C-11.5238 169.986 -14.5397 163.092 -14.9705 149.734C-15.4014 138.101 -12.8163 128.19 -7.64618 122.158Z" fill="#F6EEC6"/>
<path d="M168.646 6.99989C171.392 4.46432 174.984 1.92876 176.674 1.29486C178.364 0.660968 183.013 0.0270578 186.604 0.0270578C190.407 -0.18424 195.689 0.872257 198.225 2.14005C200.971 3.40783 204.986 5.94341 207.098 7.63379C209.211 9.32418 215.972 11.0146 221.888 11.4372C230.339 12.0711 233.931 13.5501 238.579 18.1987C241.748 21.3682 245.128 26.8619 246.185 30.454C247.03 34.0461 247.453 40.5963 247.03 45.2449C246.396 51.1612 247.241 54.7532 249.565 56.8662C251.256 58.5566 253.368 63.8391 254.002 68.4877C255.059 74.1927 254.213 79.0525 251.889 83.9124C249.988 87.5044 245.974 92.5756 242.593 94.8999C239.424 97.4354 235.198 99.3372 233.086 99.1258C230.973 99.1258 228.437 101.873 226.747 106.099C225.268 109.691 220.831 114.973 217.24 117.72C212.38 120.89 207.521 122.369 200.337 122.369C193.154 122.369 188.506 120.89 183.435 117.086C178.576 113.283 173.928 111.804 167.167 111.804C159.349 111.804 156.392 110.536 149.631 104.62C142.236 97.6468 141.813 96.5903 141.813 83.9124C141.602 75.4605 140.334 68.6989 138.222 65.3182C136.32 62.36 134.207 57.7115 133.362 54.7533C132.517 51.5838 133.151 45.8788 135.264 40.5963C137.376 34.68 141.179 30.0314 145.405 27.2845C149.208 24.9602 153.856 23.2698 155.546 23.2698C157.237 23.2698 159.983 20.523 161.251 17.3535C162.73 14.184 166.11 9.32417 168.646 6.99989Z" fill="#F6EEC6"/>
<path d="M173.716 12.4936C175.829 10.5919 178.998 8.47892 180.689 7.84503C182.379 7.21113 185.337 6.57722 187.027 6.57722C188.717 6.36592 193.365 8.26761 197.168 10.5919C200.971 12.9162 203.929 15.6631 203.929 16.9308C203.929 17.9873 208.366 18.8325 214.071 18.6212C220.409 18.1986 226.113 19.4664 229.916 21.7907C233.086 23.6924 236.889 27.707 238.368 30.8765C240.269 34.8911 240.269 38.4832 238.79 44.6108C236.889 51.5837 237.311 53.4854 241.325 58.5565C244.283 62.1486 246.185 67.431 246.185 72.2909C246.185 77.9959 244.706 81.7993 240.903 85.6027C237.945 88.5609 232.663 91.519 229.071 92.3642C224.423 93.4207 221.677 95.9563 219.986 100.394C218.507 103.774 214.704 108.845 211.113 111.592C207.732 114.128 203.084 116.241 200.76 116.241C198.436 116.241 194.21 114.551 191.252 112.649C188.295 110.747 185.337 107.789 184.492 106.31C183.435 104.408 178.998 103.774 171.392 103.986C162.519 104.408 159.138 103.774 155.546 100.394C153.011 98.0693 150.053 93.8433 148.786 90.8851C147.095 87.0818 147.095 83.2784 148.786 77.5734C150.898 70.3892 150.687 69.1214 145.828 63.4164C142.87 59.613 140.546 54.3306 140.546 50.7385C140.546 47.1465 141.813 42.0753 143.504 39.1171C145.405 35.7364 149.842 32.7782 155.546 31.0878C162.307 29.1861 165.265 26.8618 167.167 22.2133C168.646 18.6212 171.604 14.1839 173.716 12.4936Z" fill="#D79B8F"/>
<path d="M177.308 48.6256C179.421 45.8787 183.224 43.1318 185.759 42.0753C188.295 41.2301 192.52 40.385 195.055 40.385C197.802 40.1737 204.373 41.8759 208.599 46.1019C213.035 50.5392 214.704 57.0775 214.704 60.247C214.704 63.2051 213.014 68.2763 210.901 71.8683C209 75.2491 204.986 79.2638 202.028 80.5316C199.07 81.7994 194.21 82.222 190.83 81.5881C187.661 80.9542 182.59 78.2073 179.632 75.4604C175.407 72.0796 173.928 68.6988 173.716 62.1486C173.505 56.4436 174.773 51.5837 177.308 48.6256Z" fill="#F6EEC6"/>
</svg>
