<svg width="337" height="450" viewBox="0 0 337 450" fill="none" xmlns="http://www.w3.org/2000/svg">
<path d="M227.634 269.736C231.813 264.628 239.939 258.127 245.743 255.34C252.94 251.625 260.137 250 269.888 250C280.568 250 286.837 251.393 296.356 256.269C305.41 260.913 311.214 266.021 323.287 284.364L338.378 283.203C346.736 282.507 357.648 283.203 362.756 284.364C367.863 285.757 376.221 290.401 381.329 294.813C386.437 298.992 393.17 307.815 395.956 314.084C399.206 320.586 401.528 329.873 401.528 335.91C401.528 341.715 400.367 350.538 398.742 355.646C397.117 360.755 394.331 367.024 392.705 369.578C389.919 373.757 390.384 375.15 396.884 382.348C400.831 386.76 405.707 394.19 407.564 398.602C409.422 403.013 410.815 412.533 410.815 419.499C410.582 426.464 409.189 435.984 407.332 440.396C405.475 444.807 400.831 452.005 397.349 456.417C393.634 460.828 385.276 466.865 379.008 469.884C372.275 472.902 362.988 475.224 356.952 475.224C346.968 475.224 346.504 475.456 343.718 483.815C342.093 488.691 337.682 497.05 333.967 502.623C328.859 509.356 322.591 514.232 313.304 518.412C302.16 523.752 297.749 524.448 284.979 523.52C273.371 522.823 267.567 520.966 259.441 515.625C253.869 511.91 246.439 504.712 236.688 490.317L220.669 491.245C212.078 491.71 201.167 491.013 196.755 489.62C192.344 488.227 183.986 483.119 178.414 478.243C172.842 473.367 166.109 465.24 163.555 460.132C160.537 454.095 158.68 445.968 158.68 436.681C158.448 426.232 159.841 419.499 170.056 398.602L162.859 390.939C158.912 386.992 154.036 379.098 151.715 373.757C149.625 368.185 148 359.361 148 354.021C148 348.449 150.322 339.393 152.876 333.588C155.429 327.784 160.305 319.657 164.02 315.245C167.502 310.834 174.003 305.726 178.182 303.868C182.593 302.011 192.576 299.921 200.006 298.992C213.704 297.599 213.936 297.367 216.722 288.311C218.579 283.203 223.455 274.844 227.634 269.736Z" fill="#F6EEC6"/>
<path d="M238.546 270.433C242.957 266.486 249.922 262.074 253.637 260.216C257.584 258.359 265.942 257.43 273.371 257.895C281.729 258.359 289.158 260.681 295.195 264.396C300.303 267.414 306.571 273.219 309.125 276.934C311.911 280.649 315.161 285.99 316.786 288.544C318.179 291.098 320.269 292.955 321.43 292.723C322.358 292.491 330.02 291.562 338.378 290.633C350.915 289.472 355.326 289.937 363.917 293.884C369.721 296.438 377.15 301.546 380.401 305.261C383.651 308.744 388.062 315.71 390.152 320.354C392.473 325.23 394.099 333.356 394.099 338.464C394.099 344.269 391.545 352.86 387.133 360.987C380.633 373.99 380.633 374.686 384.347 379.098C386.669 381.652 391.312 387.457 394.563 391.868C398.045 396.28 401.528 404.639 402.457 410.443C403.385 417.177 402.921 425.071 400.831 432.269C398.974 438.771 394.563 447.129 390.616 451.309C386.901 455.256 381.097 459.9 377.847 461.525C374.596 463.15 364.845 465.705 340.468 469.652L334.663 483.583C331.645 491.245 327.234 499.604 324.912 501.926C322.823 504.248 316.554 508.195 311.214 510.517C304.249 513.536 296.82 514.697 286.837 514.464C275.925 514 270.121 512.375 264.084 508.428C259.673 505.641 252.244 497.747 239.707 479.636L229.259 481.493C223.455 482.654 215.097 483.351 210.686 483.351C206.274 483.119 197.916 480.565 192.112 477.546C186.54 474.528 178.878 467.794 175.164 462.686C170.52 455.953 168.431 449.683 167.502 439.467C166.341 427.393 167.038 423.91 172.146 414.391C175.396 408.354 178.182 401.62 178.182 399.298C177.95 397.209 174.699 391.636 170.753 387.224C166.806 382.813 162.162 375.847 160.537 372.132C158.912 368.185 158.215 359.129 158.68 351.235C159.144 343.573 161.234 334.749 163.323 331.499C165.413 328.248 169.36 323.14 172.146 320.354C174.699 317.335 181.432 312.924 187.004 310.37C192.344 308.048 201.631 305.958 207.899 305.958C217.883 306.19 219.044 305.494 221.83 298.992C223.223 295.277 226.009 288.776 227.634 284.596C229.027 280.649 234.135 274.148 238.546 270.433Z" fill="#DB5630"/>
<path d="M239.01 338.464C244.582 334.053 254.101 328.48 260.602 326.158C268.96 323.372 275.925 322.443 284.979 323.372C291.944 324.069 301.927 326.623 307.035 328.945C312.143 331.034 320.501 337.071 325.377 342.179C330.484 347.055 336.521 355.879 339.074 361.683C341.86 367.953 343.486 377.472 343.486 386.063C343.64 395.351 342.015 403.865 338.61 411.604C335.824 418.106 330.252 426.697 326.073 430.876C321.894 435.288 314.465 440.86 309.357 443.646C301.927 447.594 296.123 448.755 280.336 448.755C265.941 448.755 258.512 447.594 253.172 444.575C248.993 442.486 241.796 437.145 236.92 433.198C232.277 429.018 226.008 420.427 222.99 413.926C219.043 405.335 217.65 398.137 217.65 386.76C217.65 374.918 219.043 367.953 223.222 358.897C226.705 351.467 232.974 343.34 239.01 338.464Z" fill="#E49E28"/>
<path d="M283.586 379.794C282.658 376.776 282.89 372.828 283.818 370.971C285.444 367.952 286.14 368.185 288.926 372.132C290.551 374.686 291.712 378.169 291.48 380.026C291.016 381.884 289.39 383.741 287.997 384.206C286.372 384.67 284.283 382.58 283.586 379.794Z" fill="#231F12"/>
<path d="M267.102 390.939C265.477 390.243 264.084 386.528 264.084 382.58C263.852 377.937 264.781 376.079 266.87 376.776C268.495 377.472 270.585 380.259 271.513 383.045C272.442 386.063 272.442 389.314 271.513 390.475C270.585 391.404 268.495 391.636 267.102 390.939Z" fill="#231F12"/>
<path d="M296.123 409.747C300.07 407.657 305.874 401.62 308.66 396.744C311.446 391.636 314 387.921 314.465 388.617C314.929 389.082 313.768 392.332 311.911 396.047C310.053 399.53 306.803 403.942 304.481 406.032C301.928 408.121 296.356 411.604 291.944 413.926C286.604 416.712 280.336 417.641 273.371 416.945C267.334 416.48 258.744 413.462 253.172 409.747C247.6 406.264 243.189 402.084 243.189 400.691C243.189 398.679 243.808 398.447 245.046 399.995C245.975 401.388 250.386 405.103 254.797 408.121C261.066 412.533 265.709 413.926 275.693 413.694C283.122 413.694 291.712 412.069 296.123 409.747Z" fill="#231F12"/>
<path d="M263.689 14.2743C269.29 9.1037 276.615 3.93315 280.061 2.6405C283.508 1.34786 292.987 0.0551766 300.311 0.0551766C308.066 -0.375706 318.837 1.77872 324.007 4.36401C329.608 6.94931 337.794 12.1199 342.103 15.567C346.411 19.014 360.198 22.4611 372.262 23.3229C389.495 24.6155 396.819 27.6317 406.298 37.1111C412.761 43.5743 419.654 54.7773 421.808 62.1023C423.532 69.4273 424.393 82.7846 423.532 92.264C422.239 104.329 423.963 111.654 428.702 115.963C432.149 119.41 436.457 130.182 437.75 139.661C439.904 151.295 438.18 161.205 433.441 171.115C429.564 178.44 421.378 188.782 414.484 193.521C408.021 198.692 399.405 202.57 395.096 202.139C390.788 202.139 385.618 207.741 382.171 216.358C379.155 223.683 370.107 234.455 362.783 240.057C352.874 246.52 342.964 249.536 328.316 249.536C313.667 249.536 304.188 246.52 293.848 238.764C283.939 231.008 274.46 227.992 260.673 227.992C244.732 227.992 238.7 225.407 224.913 213.342C209.834 199.123 208.972 196.968 208.972 171.115C208.541 153.88 205.956 140.092 201.648 133.198C197.77 127.166 193.462 117.686 191.739 111.654C190.015 105.191 191.308 93.5567 195.616 82.7847C199.925 70.72 207.68 61.2405 216.297 55.639C224.052 50.8993 233.53 47.4522 236.977 47.4522C240.424 47.4522 246.025 41.8508 248.61 35.3876C251.626 28.9243 258.519 19.014 263.689 14.2743Z" fill="#F6EEC6"/>
<path d="M274.029 25.4771C278.338 21.5992 284.801 17.2904 288.247 15.9977C291.694 14.7051 297.726 13.4124 301.173 13.4124C304.619 12.9815 314.098 16.8595 321.853 21.5992C329.608 26.3389 335.64 31.9404 335.64 34.5257C335.64 36.6801 344.688 38.4036 356.32 37.9727C369.246 37.1109 380.878 39.6963 388.634 44.436C395.096 48.3139 402.851 56.5006 405.867 62.9639C409.745 71.1506 409.745 78.4756 406.729 90.9712C402.851 105.19 403.713 109.068 411.899 119.409C417.931 126.734 421.808 137.507 421.808 147.417C421.808 159.051 418.793 166.807 411.037 174.562C405.006 180.595 394.235 186.627 386.91 188.351C377.432 190.505 371.831 195.676 368.384 204.724C365.368 211.618 357.613 221.959 350.289 227.561C343.395 232.732 333.917 237.04 329.177 237.04C324.438 237.04 315.821 233.593 309.789 229.715C303.758 225.837 297.726 219.805 296.002 216.789C293.848 212.911 284.801 211.618 269.29 212.049C251.195 212.911 244.301 211.618 236.977 204.724C231.807 199.984 225.775 191.367 223.19 185.334C219.743 177.579 219.743 169.823 223.19 158.189C227.498 143.539 227.068 140.954 217.158 129.32C211.126 121.564 206.387 110.792 206.387 103.467C206.387 96.1418 208.972 85.8006 212.419 79.7683C216.297 72.8742 225.344 66.8418 236.977 63.3948C250.764 59.5168 256.796 54.7771 260.673 45.2977C263.689 37.9727 269.721 28.9242 274.029 25.4771Z" fill="#E49E28"/>
<path d="M281.354 99.158C285.662 93.5565 293.417 87.955 298.587 85.8006C303.758 84.0771 312.374 82.3536 317.544 82.3536C323.145 81.9227 336.545 85.3941 345.162 94.0117C354.21 103.06 357.613 116.393 357.613 122.857C357.613 128.889 354.166 139.23 349.858 146.555C345.98 153.449 337.794 161.636 331.762 164.221C325.731 166.807 315.821 167.668 308.928 166.376C302.465 165.083 292.125 159.481 286.093 153.88C277.476 146.986 274.46 140.092 274.029 126.734C273.599 115.101 276.184 105.19 281.354 99.158Z" fill="#F6EEC6"/>
<path d="M35.6457 339C38.3923 336.464 41.984 333.929 43.6743 333.295C45.3645 332.661 50.0126 332.027 53.6043 332.027C57.4073 331.816 62.6893 332.872 65.2247 334.14C67.9713 335.408 71.9856 337.943 74.0984 339.634C76.2112 341.324 82.972 343.015 88.8878 343.437C97.339 344.071 100.931 345.55 105.579 350.199C108.748 353.368 112.128 358.862 113.185 362.454C114.03 366.046 114.453 372.596 114.03 377.245C113.396 383.161 114.241 386.753 116.565 388.866C118.256 390.557 120.368 395.839 121.002 400.488C122.059 406.193 121.213 411.053 118.889 415.912C116.988 419.504 112.974 424.576 109.593 426.9C106.424 429.435 102.198 431.337 100.086 431.126C97.9728 431.126 95.4375 433.873 93.7472 438.099C92.2683 441.691 87.8315 446.973 84.2397 449.72C79.3803 452.89 74.5209 454.369 67.3374 454.369C60.154 454.369 55.5059 452.89 50.4352 449.086C45.5758 445.283 40.9277 443.804 34.1667 443.804C26.3494 443.804 23.3915 442.536 16.6306 436.62C9.23588 429.647 8.81332 428.59 8.81332 415.912C8.60204 407.46 7.33436 400.699 5.22158 397.318C3.32007 394.36 1.20731 389.711 0.362196 386.753C-0.482917 383.584 0.150894 377.879 2.26368 372.596C4.37646 366.68 8.1795 362.031 12.4051 359.285C16.2081 356.96 20.8562 355.27 22.5464 355.27C24.2367 355.27 26.9833 352.523 28.2509 349.354C29.7299 346.184 33.1103 341.324 35.6457 339Z" fill="#F6EEC6"/>
<path d="M40.7164 344.494C42.8291 342.592 45.9983 340.479 47.6886 339.845C49.3788 339.211 52.3367 338.577 54.0269 338.577C55.7171 338.366 60.3653 340.268 64.1683 342.592C67.9713 344.916 70.9292 347.663 70.9292 348.931C70.9292 349.987 75.366 350.833 81.0705 350.621C87.4089 350.199 93.1134 351.466 96.9164 353.791C100.086 355.692 103.889 359.707 105.368 362.876C107.269 366.891 107.269 370.483 105.79 376.611C103.889 383.584 104.311 385.485 108.325 390.557C111.283 394.149 113.185 399.431 113.185 404.291C113.185 409.996 111.706 413.799 107.903 417.603C104.945 420.561 99.6631 423.519 96.0713 424.364C91.4232 425.421 88.6766 427.956 86.9863 432.394C85.5074 435.774 81.7044 440.845 78.1127 443.592C74.7322 446.128 70.0841 448.241 67.76 448.241C65.436 448.241 61.2104 446.551 58.2525 444.649C55.2946 442.747 52.3367 439.789 51.4916 438.31C50.4352 436.408 45.9983 435.774 38.3923 435.986C29.5186 436.408 26.1382 435.774 22.5464 432.394C20.0111 430.069 17.0532 425.843 15.7855 422.885C14.0953 419.082 14.0953 415.278 15.7855 409.573C17.8983 402.389 17.687 401.121 12.8276 395.416C9.86972 391.613 7.54565 386.331 7.54565 382.739C7.54565 379.146 8.81333 374.075 10.5036 371.117C12.4051 367.736 16.8419 364.778 22.5464 363.088C29.3073 361.186 32.2652 358.862 34.1667 354.213C35.6457 350.621 38.6036 346.184 40.7164 344.494Z" fill="#D79B8F"/>
<path d="M44.3081 380.626C46.4208 377.879 50.2238 375.132 52.7592 374.075C55.2945 373.23 59.5201 372.385 62.0554 372.385C64.802 372.174 71.373 373.876 75.5985 378.102C80.0354 382.539 81.7043 389.077 81.7043 392.247C81.7043 395.205 80.0141 400.276 77.9013 403.868C75.9998 407.249 71.9855 411.264 69.0276 412.532C66.0697 413.799 61.2103 414.222 57.8299 413.588C54.6607 412.954 49.59 410.207 46.6321 407.46C42.4066 404.08 40.9276 400.699 40.7163 394.149C40.505 388.444 41.7727 383.584 44.3081 380.626Z" fill="#F6EEC6"/>
</svg>
