<svg width="128" height="250" viewBox="0 0 128 250" fill="none" xmlns="http://www.w3.org/2000/svg">
<path d="M72.6892 14.2743C78.2902 9.1037 85.6145 3.93315 89.0613 2.6405C92.508 1.34786 101.987 0.0551766 109.311 0.0551766C117.066 -0.375706 127.837 1.77872 133.007 4.36401C138.608 6.94931 146.794 12.1199 151.103 15.567C155.411 19.014 169.198 22.4611 181.262 23.3229C198.495 24.6155 205.819 27.6317 215.298 37.1111C221.761 43.5743 228.654 54.7773 230.808 62.1023C232.532 69.4273 233.393 82.7846 232.532 92.264C231.239 104.329 232.963 111.654 237.702 115.963C241.149 119.41 245.457 130.182 246.75 139.661C248.904 151.295 247.18 161.205 242.441 171.115C238.564 178.44 230.378 188.782 223.484 193.521C217.021 198.692 208.405 202.57 204.096 202.139C199.788 202.139 194.618 207.741 191.171 216.358C188.155 223.683 179.107 234.455 171.783 240.057C161.874 246.52 151.964 249.536 137.316 249.536C122.667 249.536 113.188 246.52 102.848 238.764C92.9389 231.008 83.4603 227.992 69.6734 227.992C53.7322 227.992 47.7004 225.407 33.9134 213.342C18.834 199.123 17.9723 196.968 17.9723 171.115C17.5414 153.88 14.9564 140.092 10.6479 133.198C6.77035 127.166 2.46197 117.686 0.738596 111.654C-0.984773 105.191 0.307706 93.5567 4.61613 82.7847C8.92455 70.72 16.6798 61.2405 25.2966 55.639C33.0518 50.8993 42.5303 47.4522 45.977 47.4522C49.4238 47.4522 55.0247 41.8508 57.6098 35.3876C60.6257 28.9243 67.5191 19.014 72.6892 14.2743Z" fill="#F6EEC6"/>
<path d="M83.0294 25.4771C87.3379 21.5992 93.8005 17.2904 97.2473 15.9977C100.694 14.7051 106.726 13.4124 110.173 13.4124C113.619 12.9815 123.098 16.8595 130.853 21.5992C138.608 26.3389 144.64 31.9404 144.64 34.5257C144.64 36.6801 153.688 38.4036 165.32 37.9727C178.246 37.1109 189.878 39.6963 197.634 44.436C204.096 48.3139 211.851 56.5006 214.867 62.9639C218.745 71.1506 218.745 78.4756 215.729 90.9712C211.851 105.19 212.713 109.068 220.899 119.409C226.931 126.734 230.808 137.507 230.808 147.417C230.808 159.051 227.793 166.807 220.037 174.562C214.006 180.595 203.235 186.627 195.91 188.351C186.432 190.505 180.831 195.676 177.384 204.724C174.368 211.618 166.613 221.959 159.289 227.561C152.395 232.732 142.917 237.04 138.177 237.04C133.438 237.04 124.821 233.593 118.789 229.715C112.758 225.837 106.726 219.805 105.002 216.789C102.848 212.911 93.8005 211.618 78.2902 212.049C60.1948 212.911 53.3013 211.618 45.977 204.724C40.8069 199.984 34.7751 191.367 32.1901 185.334C28.7433 177.579 28.7433 169.823 32.1901 158.189C36.4985 143.539 36.0676 140.954 26.1583 129.32C20.1265 121.564 15.3872 110.792 15.3872 103.467C15.3872 96.1418 17.9723 85.8006 21.419 79.7683C25.2966 72.8742 34.3443 66.8418 45.977 63.3948C59.764 59.5168 65.7958 54.7771 69.6733 45.2977C72.6892 37.9727 78.721 28.9242 83.0294 25.4771Z" fill="#DB5630"/>
<path d="M90.3538 99.158C94.6622 93.5565 102.417 87.955 107.587 85.8006C112.758 84.0771 121.374 82.3536 126.544 82.3536C132.145 81.9227 145.545 85.3941 154.162 94.0117C163.21 103.06 166.613 116.393 166.613 122.857C166.613 128.889 163.166 139.23 158.858 146.555C154.98 153.449 146.794 161.636 140.762 164.221C134.731 166.807 124.821 167.668 117.928 166.376C111.465 165.083 101.125 159.481 95.0931 153.88C86.4762 146.986 83.4603 140.092 83.0295 126.734C82.5986 115.101 85.1837 105.19 90.3538 99.158Z" fill="#F6EEC6"/>
</svg>
