<svg width="172" height="274" viewBox="0 0 172 274" fill="none" xmlns="http://www.w3.org/2000/svg">
<path d="M-11.3663 19.7361C-7.18723 14.628 0.93866 8.12664 6.74287 5.34036C13.9401 1.62532 21.1373 0 30.8884 0C41.5681 0 47.8367 1.39319 57.3556 6.26917C66.4101 10.913 72.2143 16.0211 84.2871 34.3641L99.3781 33.2031C107.736 32.5065 118.648 33.2031 123.756 34.3641C128.863 35.7572 137.221 40.401 142.329 44.8126C147.437 48.9921 154.17 57.8153 156.956 64.0844C160.206 70.5858 162.528 79.8733 162.528 85.9103C162.528 91.715 161.367 100.538 159.742 105.646C158.117 110.755 155.331 117.024 153.705 119.578C150.919 123.757 151.384 125.15 157.884 132.348C161.831 136.76 166.707 144.19 168.564 148.602C170.422 153.013 171.815 162.533 171.815 169.499C171.582 176.464 170.189 185.984 168.332 190.396C166.475 194.807 161.831 202.005 158.349 206.417C154.634 210.828 146.276 216.865 140.008 219.884C133.275 222.902 123.988 225.224 117.952 225.224C107.968 225.224 107.504 225.456 104.718 233.815C103.093 238.691 98.6815 247.05 94.9668 252.623C89.8591 259.356 83.5906 264.232 74.3039 268.412C63.1598 273.752 58.7486 274.448 45.9793 273.52C34.3709 272.823 28.5667 270.966 20.4408 265.625C14.8688 261.91 7.43938 254.712 -2.31169 240.317L-18.3313 241.245C-26.9215 241.71 -37.8334 241.013 -42.2446 239.62C-46.6558 238.227 -55.0139 233.119 -60.5859 228.243C-66.158 223.367 -72.8909 215.24 -75.4447 210.132C-78.4629 204.095 -80.3203 195.968 -80.3203 186.681C-80.5524 176.232 -79.1594 169.499 -68.944 148.602L-76.1412 140.939C-80.0881 136.992 -84.9636 129.098 -87.2853 123.757C-89.3748 118.185 -91 109.361 -91 104.021C-91 98.4485 -88.6783 89.3931 -86.1245 83.5884C-83.5706 77.7836 -78.6951 69.657 -74.9804 65.2454C-71.4979 60.8338 -64.9971 55.7256 -60.8181 53.8681C-56.4069 52.0105 -46.4237 49.9209 -38.9943 48.9921C-25.2964 47.599 -25.0642 47.3667 -22.2782 38.3113C-20.4208 33.2032 -15.5453 24.8443 -11.3663 19.7361Z" fill="#F6EEC6"/>
<path d="M-0.454353 20.4329C3.95685 16.4856 10.9219 12.074 14.6366 10.2165C18.5835 8.35897 26.9415 7.4302 34.3709 7.89458C42.729 8.35896 50.1584 10.6809 56.1947 14.3959C61.3024 17.4144 67.571 23.2191 70.1248 26.9341C72.9109 30.6492 76.1612 35.9896 77.7864 38.5436C79.1794 41.0977 81.2689 42.9553 82.4298 42.7231C83.3584 42.4909 91.02 41.5621 99.378 40.6334C111.915 39.4724 116.326 39.9368 124.917 43.884C130.721 46.4381 138.15 51.5463 141.401 55.2614C144.651 58.7442 149.062 65.7099 151.152 70.3537C153.473 75.2297 155.098 83.3563 155.098 88.4645C155.098 94.2692 152.545 102.86 148.133 110.987C141.633 123.99 141.633 124.686 145.347 129.098C147.669 131.652 152.312 137.457 155.563 141.868C159.045 146.28 162.528 154.639 163.457 160.443C164.385 167.177 163.921 175.071 161.831 182.269C159.974 188.771 155.563 197.129 151.616 201.309C147.901 205.256 142.097 209.9 138.847 211.525C135.596 213.15 125.845 215.705 101.468 219.652L95.6633 233.583C92.6452 241.245 88.234 249.604 85.9123 251.926C83.8228 254.248 77.5542 258.195 72.2144 260.517C65.2493 263.536 57.8199 264.697 47.8367 264.464C36.9248 264 31.1206 262.375 25.0842 258.428C20.673 255.641 13.2436 247.747 0.706497 229.636L-9.74109 231.493C-15.5453 232.654 -23.9034 233.351 -28.3146 233.351C-32.7258 233.119 -41.0838 230.565 -46.888 227.546C-52.4601 224.528 -60.1216 217.794 -63.8363 212.686C-68.4797 205.953 -70.5692 199.683 -71.4979 189.467C-72.6587 177.393 -71.9622 173.91 -66.8545 164.391C-63.6041 158.354 -60.8181 151.62 -60.8181 149.298C-61.0503 147.209 -64.3007 141.636 -68.2475 137.224C-72.1944 132.813 -76.8377 125.847 -78.4629 122.132C-80.0881 118.185 -80.7846 109.129 -80.3203 101.235C-79.8559 93.5727 -77.7664 84.7495 -75.6769 81.4988C-73.5874 78.2481 -69.6405 73.14 -66.8545 70.3537C-64.3007 67.3352 -57.5678 62.9236 -51.9957 60.3695C-46.6559 58.0476 -37.3691 55.9579 -31.1006 55.9579C-21.1173 56.1901 -19.9565 55.4935 -17.1705 48.9922C-15.7775 45.2772 -12.9914 38.7759 -11.3663 34.5964C-9.97326 30.6492 -4.86555 24.1479 -0.454353 20.4329Z" fill="#DB5630"/>
<path d="M0.00996971 88.4644C5.58201 84.0528 15.1009 78.4803 21.6016 76.1584C29.9597 73.3721 36.9247 72.4433 45.9793 73.3721C52.9444 74.0687 62.9276 76.6227 68.0353 78.9446C73.143 81.0344 81.5011 87.0713 86.3766 92.1795C91.4843 97.0555 97.5207 105.879 100.075 111.683C102.861 117.953 104.486 127.472 104.486 136.063C104.641 145.351 103.015 153.865 99.6102 161.604C96.8242 168.106 91.2521 176.697 87.0731 180.876C82.8941 185.288 75.4647 190.86 70.357 193.646C62.9276 197.594 57.1234 198.755 41.3359 198.755C26.9415 198.755 19.5121 197.594 14.1722 194.575C9.99321 192.486 2.79599 187.145 -2.07955 183.198C-6.72291 179.018 -12.9915 170.427 -16.0096 163.926C-19.9565 155.335 -21.3495 148.137 -21.3495 136.76C-21.3495 124.918 -19.9565 117.953 -15.7775 108.897C-12.295 101.467 -6.02641 93.3404 0.00996971 88.4644Z" fill="#E49E28"/>
<path d="M44.5864 129.794C43.6577 126.776 43.8899 122.828 44.8185 120.971C46.4437 117.952 47.1402 118.185 49.9262 122.132C51.5514 124.686 52.7123 128.169 52.4801 130.026C52.0158 131.884 50.3906 133.741 48.9976 134.206C47.3724 134.67 45.2829 132.58 44.5864 129.794Z" fill="#231F12"/>
<path d="M28.1024 140.939C26.4772 140.243 25.0842 136.528 25.0842 132.58C24.8521 127.937 25.7807 126.079 27.8703 126.776C29.4954 127.472 31.5849 130.259 32.5136 133.045C33.4423 136.063 33.4423 139.314 32.5136 140.475C31.5849 141.404 29.4954 141.636 28.1024 140.939Z" fill="#231F12"/>
<path d="M57.1235 159.747C61.0703 157.657 66.8745 151.62 69.6606 146.744C72.4466 141.636 75.0004 137.921 75.4648 138.617C75.9291 139.082 74.7683 142.332 72.9109 146.047C71.0536 149.53 67.8032 153.942 65.4815 156.032C62.9277 158.121 57.3556 161.604 52.9444 163.926C47.6046 166.712 41.336 167.641 34.371 166.945C28.3346 166.48 19.7444 163.462 14.1723 159.747C8.60029 156.264 4.18909 152.084 4.18909 150.691C4.18909 148.679 4.8082 148.447 6.04643 149.995C6.97511 151.388 11.3863 155.103 15.7975 158.121C22.066 162.533 26.7094 163.926 36.6926 163.694C44.122 163.694 52.7123 162.069 57.1235 159.747Z" fill="#231F12"/>
</svg>
