<svg width="222" height="274" viewBox="0 0 222 274" fill="none" xmlns="http://www.w3.org/2000/svg">
<path d="M79.6337 19.7361C83.8128 14.628 91.9387 8.12664 97.7429 5.34036C104.94 1.62532 112.137 0 121.888 0C132.568 0 138.837 1.39319 148.356 6.26917C157.41 10.913 163.214 16.0211 175.287 34.3641L190.378 33.2031C198.736 32.5065 209.648 33.2031 214.756 34.3641C219.863 35.7572 228.221 40.401 233.329 44.8126C238.437 48.9921 245.17 57.8153 247.956 64.0844C251.206 70.5858 253.528 79.8733 253.528 85.9103C253.528 91.715 252.367 100.538 250.742 105.646C249.117 110.755 246.331 117.024 244.705 119.578C241.919 123.757 242.384 125.15 248.884 132.348C252.831 136.76 257.707 144.19 259.564 148.602C261.422 153.013 262.815 162.533 262.815 169.499C262.582 176.464 261.189 185.984 259.332 190.396C257.475 194.807 252.831 202.005 249.349 206.417C245.634 210.828 237.276 216.865 231.008 219.884C224.275 222.902 214.988 225.224 208.952 225.224C198.968 225.224 198.504 225.456 195.718 233.815C194.093 238.691 189.682 247.05 185.967 252.623C180.859 259.356 174.591 264.232 165.304 268.412C154.16 273.752 149.749 274.448 136.979 273.52C125.371 272.823 119.567 270.966 111.441 265.625C105.869 261.91 98.4394 254.712 88.6883 240.317L72.6687 241.245C64.0785 241.71 53.1666 241.013 48.7554 239.62C44.3442 238.227 35.9861 233.119 30.4141 228.243C24.842 223.367 18.1091 215.24 15.5553 210.132C12.5371 204.095 10.6797 195.968 10.6797 186.681C10.4476 176.232 11.8406 169.499 22.056 148.602L14.8588 140.939C10.9119 136.992 6.03638 129.098 3.71469 123.757C1.62518 118.185 0 109.361 0 104.021C0 98.4485 2.32168 89.3931 4.87554 83.5884C7.42939 77.7836 12.3049 69.657 16.0196 65.2454C19.5021 60.8338 26.0029 55.7256 30.1819 53.8681C34.5931 52.0105 44.5763 49.9209 52.0057 48.9921C65.7036 47.599 65.9358 47.3667 68.7218 38.3113C70.5792 33.2032 75.4547 24.8443 79.6337 19.7361Z" fill="#F6EEC6"/>
<path d="M90.5456 20.4329C94.9568 16.4857 101.922 12.074 105.637 10.2165C109.583 8.35899 117.941 7.43022 125.371 7.8946C133.729 8.35898 141.158 10.6809 147.195 14.3959C152.302 17.4144 158.571 23.2191 161.125 26.9342C163.911 30.6492 167.161 35.9896 168.786 38.5437C170.179 41.0978 172.269 42.9553 173.43 42.7231C174.358 42.4909 182.02 41.5622 190.378 40.6334C202.915 39.4724 207.326 39.9368 215.916 43.8841C221.721 46.4381 229.15 51.5463 232.4 55.2614C235.651 58.7442 240.062 65.7099 242.152 70.3537C244.473 75.2297 246.098 83.3563 246.098 88.4645C246.098 94.2692 243.545 102.86 239.133 110.987C232.633 123.99 232.633 124.686 236.347 129.098C238.669 131.652 243.312 137.457 246.563 141.868C250.045 146.28 253.528 154.639 254.456 160.443C255.385 167.177 254.921 175.071 252.831 182.269C250.974 188.771 246.563 197.129 242.616 201.309C238.901 205.256 233.097 209.9 229.847 211.525C226.596 213.15 216.845 215.705 192.467 219.652L186.663 233.583C183.645 241.245 179.234 249.604 176.912 251.926C174.823 254.248 168.554 258.195 163.214 260.517C156.249 263.536 148.82 264.697 138.837 264.464C127.925 264 122.12 262.375 116.084 258.428C111.673 255.641 104.244 247.747 91.7064 229.636L81.2589 231.493C75.4546 232.654 67.0966 233.351 62.6854 233.351C58.2742 233.119 49.9161 230.565 44.1119 227.546C38.5399 224.528 30.8783 217.794 27.1636 212.686C22.5203 205.953 20.4307 199.683 19.5021 189.467C18.3412 177.393 19.0377 173.91 24.1454 164.391C27.3958 158.354 30.1818 151.62 30.1818 149.298C29.9496 147.209 26.6993 141.636 22.7524 137.224C18.8056 132.813 14.1622 125.847 12.537 122.132C10.9118 118.185 10.2153 109.129 10.6797 101.235C11.144 93.5727 13.2335 84.7495 15.323 81.4988C17.4126 78.2481 21.3594 73.14 24.1454 70.3537C26.6993 67.3352 33.4322 62.9236 39.0042 60.3695C44.3441 58.0476 53.6308 55.9579 59.8994 55.9579C69.8826 56.1901 71.0434 55.4935 73.8295 48.9922C75.2225 45.2772 78.0085 38.7759 79.6337 34.5965C81.0267 30.6492 86.1344 24.1479 90.5456 20.4329Z" fill="#DB5630"/>
<path d="M91.01 88.4645C96.582 84.0529 106.101 78.4803 112.602 76.1584C120.96 73.3721 127.925 72.4434 136.979 73.3721C143.944 74.0687 153.928 76.6228 159.035 78.9447C164.143 81.0344 172.501 87.0713 177.377 92.1795C182.484 97.0555 188.521 105.879 191.075 111.683C193.861 117.953 195.486 127.472 195.486 136.063C195.641 145.351 194.015 153.865 190.61 161.604C187.824 168.106 182.252 176.697 178.073 180.876C173.894 185.288 166.465 190.86 161.357 193.646C153.928 197.594 148.123 198.755 132.336 198.755C117.942 198.755 110.512 197.594 105.172 194.575C100.993 192.486 93.796 187.145 88.9205 183.198C84.2771 179.019 78.0086 170.427 74.9904 163.926C71.0435 155.335 69.6505 148.137 69.6505 136.76C69.6505 124.918 71.0435 117.953 75.2226 108.897C78.7051 101.467 84.9736 93.3405 91.01 88.4645Z" fill="#E49E28"/>
<path d="M135.586 129.794C134.658 126.776 134.89 122.828 135.819 120.971C137.444 117.952 138.14 118.185 140.926 122.132C142.551 124.686 143.712 128.169 143.48 130.026C143.016 131.884 141.391 133.741 139.998 134.206C138.372 134.67 136.283 132.58 135.586 129.794Z" fill="#231F12"/>
<path d="M119.102 140.939C117.477 140.243 116.084 136.528 116.084 132.58C115.852 127.937 116.781 126.079 118.87 126.776C120.495 127.472 122.585 130.259 123.514 133.045C124.442 136.063 124.442 139.314 123.514 140.475C122.585 141.404 120.495 141.636 119.102 140.939Z" fill="#231F12"/>
<path d="M148.123 159.747C152.07 157.657 157.875 151.62 160.661 146.744C163.447 141.636 166 137.921 166.465 138.617C166.929 139.082 165.768 142.332 163.911 146.047C162.054 149.53 158.803 153.942 156.482 156.032C153.928 158.121 148.356 161.604 143.944 163.926C138.605 166.712 132.336 167.641 125.371 166.945C119.335 166.48 110.744 163.462 105.172 159.747C99.6003 156.264 95.1891 152.084 95.1891 150.691C95.1891 148.679 95.8082 148.447 97.0464 149.995C97.9751 151.388 102.386 155.103 106.798 158.121C113.066 162.533 117.709 163.926 127.693 163.694C135.122 163.694 143.712 162.069 148.123 159.747Z" fill="#231F12"/>
</svg>
