<svg width="180" height="140" viewBox="0 0 180 140" fill="none" xmlns="http://www.w3.org/2000/svg">
<path d="M32.2414 3.75666C34.3248 3.98494 38.4911 4.44145 41.4977 4.91713C44.5044 5.39283 47.5524 5.71461 48.168 5.87957C48.8249 5.89061 53.8928 7.90843 59.3399 10.3578C64.9822 12.6945 72.1716 17.2605 75.5958 20.4876C79.2151 23.6021 84.0627 29.5202 86.7365 33.7011C89.4515 37.728 92.4713 44.3113 93.5647 48.2337C94.6582 52.1561 95.6661 58.8601 96.3079 71.24L103.364 67.6865C107.338 65.7819 115.182 63.5945 120.756 63.1083C129.43 62.1331 132.745 62.6913 143.046 66.1112C149.694 68.3875 158.054 72.2774 161.726 74.581C168.033 78.7456 168.371 79.3311 167.603 85.8893C167.117 89.5533 165.673 94.9405 164.274 97.7001C162.874 100.46 159.862 104.932 157.539 107.444C155.37 109.997 150.049 113.85 145.879 115.868C141.556 117.844 134.061 119.96 129.185 120.303C121.794 120.797 117.053 120.022 104.095 116.055C88.4073 111.191 88.2534 111.15 86.3401 114.597C85.3422 116.474 83.1433 118.524 81.3567 119.035C79.1799 119.772 77.6408 119.36 75.97 117.592C74.7196 116.102 74.2005 112.499 75.8975 101.24L62.8566 97.581C52.2783 94.5816 48.329 92.6985 42.0027 87.374C37.8089 83.9406 31.6285 76.8405 28.3914 71.6838C25.1955 66.3732 21.5712 58.9681 20.4777 55.0457C19.3843 51.1233 18.3874 43.7624 18.3934 38.8148C18.3995 33.8672 19.2605 26.3442 20.4154 22.0344C21.5289 17.8785 23.9482 11.9279 25.5426 9.05561C27.7335 5.18839 29.7675 3.75372 32.2411 3.75662L32.2414 3.75666Z" fill="#F6EEC6"/>
<path d="M24.4724 45.0629C23.7421 37.9383 24.3446 31.9958 26.9429 22.2987C30.1599 10.2928 30.7564 9.29781 33.5268 10.0401C35.2197 10.4938 36.3575 11.7884 36.11 12.712C35.8213 13.7894 41.2483 24.3171 60.9756 57.8134L64.1152 50.406C65.7317 46.2199 68.7666 40.4342 70.5974 37.2953C72.4282 34.1565 74.8444 30.6796 75.9439 29.6544C77.321 28.2087 77.9779 28.2197 78.3763 29.8112C78.5493 31.0124 76.9026 34.6955 74.7227 37.9058C72.3477 41.2287 69.4858 48.2156 68.0836 53.449C65.7739 62.0686 65.8232 63.7316 71.8055 73.4182L78.505 58.881C82.2712 50.9816 85.7075 44.3136 86.2929 43.9755C86.8784 43.6375 87.3592 44.9211 87.3673 46.738C87.5292 48.5961 86.1903 52.3617 84.4833 55.0387C82.6223 57.6746 80.0793 64.087 78.7183 69.1665C76.4911 77.4782 76.5817 78.9873 79.7775 84.2979C81.734 87.4617 83.8525 92.4836 85.7618 100.749L89.3852 92.1513C91.2793 87.5447 94.3857 82.1081 96.2768 79.9752C98.1267 77.9963 102.082 74.9318 105.051 73.0877C108.173 71.2847 114.159 69.2594 118.502 68.4433C124.353 67.5366 129.372 67.8915 138.606 70.3659C145.378 72.1804 153.596 75.3721 156.847 77.3981C161.134 79.8666 162.723 81.942 162.269 83.6351C161.774 85.4822 160.1 86.1885 157.135 85.5588C154.785 85.0942 144.899 86.8994 135.268 89.598C117.834 94.3301 117.639 94.4427 120.714 97.7413C122.385 99.5088 125.449 103.464 127.601 106.515C129.711 109.72 131.36 112.802 131.112 113.725C130.865 114.649 129.622 114.976 128.391 114.646C127.16 114.316 125.459 112.046 124.805 109.561C124.151 107.076 120.779 103.038 117.344 100.468C112.493 97.0234 110.534 96.3334 108.624 97.3063C106.867 98.3204 107.235 99.4089 110.588 102.287C112.987 104.415 116.062 107.713 117.384 109.552C118.665 111.545 119.596 113.609 119.431 114.225C119.225 114.995 117.562 115.044 115.562 114.508C113.715 114.013 110.865 111.105 109.103 107.828C107.383 104.398 104.646 101.685 102.338 101.066C100.183 100.489 96.0052 100.689 93.1715 101.415C89.5984 102.437 86.465 104.897 84.2439 108.261C82.3416 111.051 80.4092 113.337 79.6397 113.131C79.0241 112.966 79.7252 110.35 81.053 107.241C82.8949 103.445 83.1645 101.208 81.9141 99.7179C80.9303 98.4645 74.6724 95.9628 67.9005 94.1483C59.169 91.6437 53.3014 88.9167 47.3432 84.6806C41.2724 80.2494 37.1421 75.3483 32.1848 66.7612C27.2276 58.1741 25.0488 52.1462 24.4724 45.0629Z" fill="#A59E37"/>
<path d="M36.0687 12.8658C36.3574 11.7884 35.7639 10.3095 34.7691 9.71302C33.9694 9.00381 39.5925 10.1806 47.2879 12.2426C57.1792 14.728 63.4371 17.2296 67.4468 20.1187C70.7694 22.4938 73.927 25.4845 74.7569 26.6967C75.9248 28.4944 75.276 30.3002 71.9856 35.1926C69.5693 38.6695 66.1743 45.1836 60.9756 57.8133L48.2747 36.2631C41.2483 24.317 35.8213 13.7893 36.0687 12.8658Z" fill="#D3B94A"/>
<path d="M68.0423 53.6028C69.4858 48.2156 72.7792 40.8494 75.2367 37.2186L79.8328 30.5314L82.7812 36.7655C84.5014 40.1959 85.5646 43.6153 85.1633 44.4976C84.9158 45.4211 81.7874 52.1716 71.8055 73.4181L68.5684 68.2614C65.8232 63.7315 65.7739 62.0685 68.0423 53.6028Z" fill="#D3B94A"/>
<path d="M78.7897 69.5154C80.0682 64.7439 82.7349 57.8697 84.8434 54.3103L88.5462 47.8787L90.4555 56.144C91.8125 62.7766 91.4986 67.6417 85.46 95.7188L80.8518 87.0602C76.7356 79.0284 76.5625 77.8272 78.7897 69.5154Z" fill="#D3B94A"/>
<path d="M133.635 90.1503C142.373 87.7073 151.336 85.6546 153.696 85.4623C156.099 85.1161 159.034 85.2428 160.224 85.7266C162.03 86.3754 162.038 88.1923 160.132 93.4558C158.989 97.1087 156.921 100.514 155.679 100.841C154.437 101.168 153.964 101.701 154.58 101.866C155.195 102.031 153.694 103.939 150.951 106.173C148.403 108.295 143.134 111.337 132.393 115.718L128.112 108.302C125.9 104.245 122.539 99.55 120.868 97.7825C117.793 94.4839 117.988 94.3712 133.635 90.1503Z" fill="#D3B94A"/>
<path d="M111.429 102.842C109.03 100.715 107.678 98.3726 108.346 97.7267C109.055 96.9269 110.451 96.6411 111.529 96.9298C112.452 97.1772 115.929 99.5935 119.015 102.235C122.255 104.918 125.053 108.637 125.522 110.578C125.838 112.477 126.154 114.376 126.03 114.838C125.907 115.3 124.552 115.432 122.93 115.327C121.504 115.11 119.217 113.178 118.019 110.877C116.821 108.576 113.828 104.97 111.429 102.842Z" fill="#D3B94A"/>
<path d="M90.9423 102.962C90.9947 102.151 92.5971 101.096 94.4963 100.78C96.2828 100.268 99.5672 100.324 101.722 100.901C103.918 101.324 106.963 104.12 108.919 107.284C111.06 110.992 111.417 112.737 109.949 112.674C108.636 112.652 103.876 110.717 99.1568 108.627C94.6331 106.425 90.8488 103.927 90.9423 102.962Z" fill="#D3B94A"/>
</svg>
