<svg width="497" height="497" viewBox="0 0 497 497" fill="none" xmlns="http://www.w3.org/2000/svg">
<path d="M103.542 434.875H393.458C416.332 434.875 434.875 416.332 434.875 393.458V103.542C434.875 80.6679 416.332 62.125 393.458 62.125H103.542C80.6679 62.125 62.125 80.6679 62.125 103.542V393.458C62.125 416.332 80.6679 434.875 103.542 434.875ZM103.542 434.875L331.333 207.083L434.875 310.625M207.083 176.021C207.083 193.176 193.176 207.083 176.021 207.083C158.865 207.083 144.958 193.176 144.958 176.021C144.958 158.865 158.865 144.958 176.021 144.958C193.176 144.958 207.083 158.865 207.083 176.021Z" stroke="white" stroke-width="4" stroke-linecap="round" stroke-linejoin="round"/>
</svg>
