<svg width="1190" height="380" viewBox="0 0 1190 380" fill="none" xmlns="http://www.w3.org/2000/svg">
<circle cx="92" cy="116" r="61" fill="#D79B8F"/>
<circle cx="359" cy="319" r="61" fill="#A59E37"/>
<circle cx="740" cy="116" r="61" fill="#DB5630"/>
<circle cx="1070" cy="238" r="61" fill="#E49E28"/>
<path d="M94 121C-34 333 417.5 175 370.5 333C577.5 333 661 -6.5 741 121C810.5 247 992 96 1068.5 244" stroke="black" stroke-width="2"/>
<path d="M1042.24 83.7567C1044.32 83.9849 1048.49 84.4414 1051.5 84.9171C1054.5 85.3928 1057.55 85.7146 1058.17 85.8796C1058.82 85.8906 1063.89 87.9084 1069.34 90.3578C1074.98 92.6945 1082.17 97.2605 1085.6 100.488C1089.22 103.602 1094.06 109.52 1096.74 113.701C1099.45 117.728 1102.47 124.311 1103.56 128.234C1104.66 132.156 1105.67 138.86 1106.31 151.24L1113.36 147.686C1117.34 145.782 1125.18 143.594 1130.76 143.108C1139.43 142.133 1142.74 142.691 1153.05 146.111C1159.69 148.388 1168.05 152.277 1171.73 154.581C1178.03 158.746 1178.37 159.331 1177.6 165.889C1177.12 169.553 1175.67 174.941 1174.27 177.7C1172.87 180.46 1169.86 184.932 1167.54 187.444C1165.37 189.997 1160.05 193.85 1155.88 195.868C1151.56 197.844 1144.06 199.96 1139.18 200.303C1131.79 200.797 1127.05 200.022 1114.09 196.055C1098.41 191.191 1098.25 191.15 1096.34 194.597C1095.34 196.474 1093.14 198.524 1091.36 199.035C1089.18 199.772 1087.64 199.36 1085.97 197.592C1084.72 196.102 1084.2 192.499 1085.9 181.24L1072.86 177.581C1062.28 174.582 1058.33 172.699 1052 167.374C1047.81 163.941 1041.63 156.841 1038.39 151.684C1035.2 146.373 1031.57 138.968 1030.48 135.046C1029.38 131.123 1028.39 123.762 1028.39 118.815C1028.4 113.867 1029.26 106.344 1030.42 102.034C1031.53 97.8785 1033.95 91.9279 1035.54 89.0556C1037.73 85.1884 1039.77 83.7537 1042.24 83.7566L1042.24 83.7567Z" fill="#F6EEC6"/>
<path d="M1034.47 125.063C1033.74 117.938 1034.34 111.996 1036.94 102.299C1040.16 90.2928 1040.76 89.2978 1043.53 90.0401C1045.22 90.4938 1046.36 91.7884 1046.11 92.712C1045.82 93.7894 1051.25 104.317 1070.98 137.813L1074.12 130.406C1075.73 126.22 1078.77 120.434 1080.6 117.295C1082.43 114.156 1084.84 110.68 1085.94 109.654C1087.32 108.209 1087.98 108.22 1088.38 109.811C1088.55 111.012 1086.9 114.695 1084.72 117.906C1082.35 121.229 1079.49 128.216 1078.08 133.449C1075.77 142.069 1075.82 143.732 1081.81 153.418L1088.51 138.881C1092.27 130.982 1095.71 124.314 1096.29 123.976C1096.88 123.637 1097.36 124.921 1097.37 126.738C1097.53 128.596 1096.19 132.362 1094.48 135.039C1092.62 137.675 1090.08 144.087 1088.72 149.166C1086.49 157.478 1086.58 158.987 1089.78 164.298C1091.73 167.462 1093.85 172.484 1095.76 180.749L1099.39 172.151C1101.28 167.545 1104.39 162.108 1106.28 159.975C1108.13 157.996 1112.08 154.932 1115.05 153.088C1118.17 151.285 1124.16 149.259 1128.5 148.443C1134.35 147.537 1139.37 147.892 1148.61 150.366C1155.38 152.18 1163.6 155.372 1166.85 157.398C1171.13 159.867 1172.72 161.942 1172.27 163.635C1171.77 165.482 1170.1 166.188 1167.13 165.559C1164.78 165.094 1154.9 166.899 1145.27 169.598C1127.83 174.33 1127.64 174.443 1130.71 177.741C1132.38 179.509 1135.45 183.464 1137.6 186.515C1139.71 189.72 1141.36 192.802 1141.11 193.725C1140.86 194.649 1139.62 194.976 1138.39 194.646C1137.16 194.316 1135.46 192.046 1134.81 189.561C1134.15 187.076 1130.78 183.038 1127.34 180.468C1122.49 177.023 1120.53 176.333 1118.62 177.306C1116.87 178.32 1117.24 179.409 1120.59 182.287C1122.99 184.415 1126.06 187.713 1127.38 189.552C1128.66 191.545 1129.6 193.609 1129.43 194.225C1129.23 194.995 1127.56 195.044 1125.56 194.508C1123.71 194.013 1120.86 191.105 1119.1 187.828C1117.38 184.398 1114.65 181.685 1112.34 181.066C1110.18 180.489 1106.01 180.689 1103.17 181.415C1099.6 182.437 1096.46 184.897 1094.24 188.261C1092.34 191.051 1090.41 193.337 1089.64 193.131C1089.02 192.966 1089.73 190.35 1091.05 187.241C1092.89 183.445 1093.16 181.208 1091.91 179.718C1090.93 178.464 1084.67 175.963 1077.9 174.148C1069.17 171.644 1063.3 168.917 1057.34 164.681C1051.27 160.249 1047.14 155.348 1042.18 146.761C1037.23 138.174 1035.05 132.146 1034.47 125.063Z" fill="#A59E37"/>
<path d="M1046.07 92.8658C1046.36 91.7884 1045.76 90.3095 1044.77 89.713C1043.97 89.0038 1049.59 90.1806 1057.29 92.2426C1067.18 94.728 1073.44 97.2296 1077.45 100.119C1080.77 102.494 1083.93 105.484 1084.76 106.697C1085.92 108.494 1085.28 110.3 1081.99 115.193C1079.57 118.669 1076.17 125.184 1070.98 137.813L1058.27 116.263C1051.25 104.317 1045.82 93.7893 1046.07 92.8658Z" fill="#D3B94A"/>
<path d="M1078.04 133.603C1079.49 128.216 1082.78 120.849 1085.24 117.219L1089.83 110.531L1092.78 116.766C1094.5 120.196 1095.56 123.615 1095.16 124.498C1094.92 125.421 1091.79 132.172 1081.81 153.418L1078.57 148.261C1075.82 143.731 1075.77 142.069 1078.04 133.603Z" fill="#D3B94A"/>
<path d="M1088.79 149.515C1090.07 144.744 1092.73 137.87 1094.84 134.31L1098.55 127.879L1100.46 136.144C1101.81 142.777 1101.5 147.642 1095.46 175.719L1090.85 167.06C1086.74 159.028 1086.56 157.827 1088.79 149.515Z" fill="#D3B94A"/>
<path d="M1143.64 170.15C1152.37 167.707 1161.34 165.655 1163.7 165.462C1166.1 165.116 1169.03 165.243 1170.22 165.727C1172.03 166.375 1172.04 168.192 1170.13 173.456C1168.99 177.109 1166.92 180.514 1165.68 180.841C1164.44 181.168 1163.96 181.701 1164.58 181.866C1165.2 182.031 1163.69 183.939 1160.95 186.173C1158.4 188.295 1153.13 191.337 1142.39 195.718L1138.11 188.302C1135.9 184.245 1132.54 179.55 1130.87 177.782C1127.79 174.484 1127.99 174.371 1143.64 170.15Z" fill="#D3B94A"/>
<path d="M1121.43 182.842C1119.03 180.715 1117.68 178.373 1118.35 177.727C1119.06 176.927 1120.45 176.641 1121.53 176.93C1122.45 177.177 1125.93 179.594 1129.01 182.235C1132.26 184.918 1135.05 188.637 1135.52 190.578C1135.84 192.477 1136.15 194.376 1136.03 194.838C1135.91 195.3 1134.55 195.432 1132.93 195.327C1131.5 195.11 1129.22 193.178 1128.02 190.877C1126.82 188.576 1123.83 184.97 1121.43 182.842Z" fill="#D3B94A"/>
<path d="M1100.94 182.962C1100.99 182.151 1102.6 181.096 1104.5 180.78C1106.28 180.268 1109.57 180.324 1111.72 180.901C1113.92 181.324 1116.96 184.12 1118.92 187.284C1121.06 190.992 1121.42 192.737 1119.95 192.674C1118.64 192.652 1113.88 190.717 1109.16 188.627C1104.63 186.425 1100.85 183.927 1100.94 182.962Z" fill="#D3B94A"/>
<path d="M119.475 3.03879C117.79 3.22345 114.42 3.59272 111.988 3.9775C109.555 4.3623 107.09 4.62259 106.592 4.75603C106.06 4.76496 101.961 6.39719 97.5548 8.37852C92.9907 10.2687 87.1752 13.9621 84.4053 16.5726C81.4776 19.0919 77.5564 23.8791 75.3935 27.2611C73.1973 30.5185 70.7546 35.8437 69.8701 39.0166C68.9856 42.1894 68.1703 47.6124 67.6511 57.6266L61.9438 54.7521C58.7288 53.2115 52.3835 51.442 47.8748 51.0488C40.8582 50.2599 38.177 50.7115 29.8447 53.4779C24.4669 55.3192 17.7042 58.4657 14.7342 60.3291C9.63222 63.6979 9.35882 64.1715 9.97968 69.4765C10.3735 72.4403 11.5412 76.7981 12.6731 79.0303C13.8049 81.2626 16.242 84.8799 18.1208 86.912C19.8752 88.9774 24.1797 92.0943 27.5525 93.7261C31.0498 95.3245 37.1127 97.0362 41.0568 97.3139C47.0351 97.7137 50.8701 97.0865 61.3522 93.8774C74.042 89.9434 74.1665 89.91 75.7141 92.6981C76.5213 94.2166 78.3001 95.8752 79.7452 96.2887C81.5061 96.8844 82.7511 96.5508 84.1026 95.1211C85.1141 93.9159 85.534 91.001 84.1612 81.8941L94.7101 78.934C103.267 76.5078 106.462 74.9845 111.579 70.6775C114.971 67.9002 119.971 62.1569 122.589 57.9856C125.174 53.6898 128.106 47.6998 128.991 44.5269C129.875 41.3541 130.682 35.3997 130.677 31.3976C130.672 27.3955 129.975 21.31 129.041 17.8238C128.14 14.4621 126.183 9.64853 124.894 7.32515C123.121 4.19693 121.476 3.03641 119.475 3.03876L119.475 3.03879Z" fill="#F6EEC6"/>
<path d="M125.759 36.4517C126.35 30.6886 125.863 25.8817 123.761 18.0376C121.159 8.32594 120.676 7.52109 118.435 8.12155C117.066 8.4885 116.146 9.53577 116.346 10.2828C116.579 11.1544 112.189 19.6703 96.2317 46.7657L93.6921 40.7738C92.3845 37.3876 89.9295 32.7075 88.4486 30.1685C86.9676 27.6295 85.0131 24.817 84.1237 23.9877C83.0098 22.8182 82.4784 22.8272 82.1562 24.1145C82.0162 25.0862 83.3483 28.0655 85.1116 30.6623C87.0327 33.3503 89.3477 39.002 90.482 43.2353C92.3503 50.2078 92.3104 51.553 87.4713 59.3885L82.052 47.6293C79.0055 41.2394 76.2259 35.8456 75.7523 35.5722C75.2787 35.2987 74.8898 36.3371 74.8833 37.8067C74.7523 39.3098 75.8353 42.3558 77.2162 44.5213C78.7215 46.6534 80.7786 51.8405 81.8795 55.9493C83.6811 62.6728 83.6078 63.8934 81.0227 68.1892C79.44 70.7484 77.7264 74.8107 76.182 81.4966L73.251 74.542C71.7188 70.8156 69.206 66.4179 67.6763 64.6926C66.1799 63.0919 62.9804 60.6129 60.5791 59.1212C58.0534 57.6628 53.211 56.0244 49.6982 55.3643C44.9649 54.6309 40.9053 54.918 33.4355 56.9195C27.9576 58.3873 21.3105 60.9691 18.6806 62.6079C15.2126 64.6047 13.9277 66.2835 14.2947 67.6531C14.695 69.1472 16.049 69.7185 18.4479 69.2092C20.3487 68.8334 28.3458 70.2936 36.1362 72.4765C50.2386 76.3043 50.3964 76.3955 47.9089 79.0637C46.5573 80.4935 44.0788 83.6931 42.3383 86.1612C40.6311 88.7538 39.2975 91.2463 39.4976 91.9934C39.6978 92.7404 40.7027 93.0049 41.6987 92.7381C42.6947 92.4712 44.0707 90.6346 44.5996 88.6246C45.1285 86.6146 47.856 83.3482 50.6348 81.2692C54.5585 78.483 56.1436 77.9248 57.6889 78.7118C59.1096 79.5322 58.8118 80.4126 56.0997 82.7407C54.159 84.4618 51.6715 87.13 50.6023 88.6175C49.5664 90.2296 48.8129 91.8994 48.9464 92.3974C49.1132 93.02 50.4583 93.0599 52.0767 92.6262C53.5707 92.2259 55.8759 89.8734 57.3007 87.223C58.6921 84.4482 60.9063 82.2535 62.7737 81.7531C64.5167 81.2861 67.896 81.4482 70.1882 82.035C73.0785 82.862 75.6132 84.8517 77.4098 87.5731C78.9486 89.8297 80.5117 91.6795 81.1342 91.5127C81.6322 91.3793 81.065 89.2626 79.9909 86.748C78.501 83.6776 78.2829 81.8678 79.2944 80.6626C80.0902 79.6487 85.1523 77.6251 90.6301 76.1573C97.6931 74.1313 102.439 71.9254 107.259 68.4988C112.17 64.9144 115.511 60.9498 119.521 54.0037C123.531 47.0575 125.293 42.1815 125.759 36.4517Z" fill="#A59E37"/>
<path d="M116.379 10.4073C116.145 9.53571 116.626 8.33949 117.43 7.85696C118.077 7.28328 113.529 8.23518 107.304 9.90312C99.3026 11.9136 94.2405 13.9372 90.9971 16.2742C88.3094 18.1954 85.7552 20.6146 85.0839 21.5952C84.1392 23.0493 84.664 24.5101 87.3256 28.4676C89.2802 31.2801 92.0264 36.5494 96.2317 46.7657L106.506 29.3335C112.189 19.6702 116.579 11.1543 116.379 10.4073Z" fill="#D3B94A"/>
<path d="M90.5154 43.3598C89.3477 39.002 86.6836 33.0434 84.6957 30.1064L80.9779 24.6971L78.5929 29.7399C77.2015 32.5148 76.3414 35.2808 76.6661 35.9945C76.8663 36.7415 79.3969 42.2021 87.4713 59.3885L90.0898 55.2172C92.3104 51.5529 92.3503 50.2077 90.5154 43.3598Z" fill="#D3B94A"/>
<path d="M81.8217 56.2316C80.7875 52.3718 78.6304 46.8112 76.9248 43.932L73.9296 38.7295L72.3852 45.4153C71.2875 50.7805 71.5414 54.7159 76.426 77.4277L80.1536 70.4237C83.4833 63.9267 83.6233 62.9551 81.8217 56.2316Z" fill="#D3B94A"/>
<path d="M37.4568 72.9233C30.389 70.9471 23.1389 69.2867 21.2291 69.1312C19.286 68.8511 16.9116 68.9536 15.9489 69.3449C14.4883 69.8698 14.4818 71.3394 16.023 75.5972C16.9482 78.552 18.6203 81.3067 19.6253 81.5712C20.6302 81.8357 21.0126 82.2671 20.5146 82.4005C20.0167 82.5339 21.2307 84.0769 23.4497 85.8844C25.5108 87.6007 29.773 90.0618 38.4618 93.6053L41.9249 87.6064C43.7142 84.3245 46.4328 80.5268 47.7844 79.097C50.2719 76.4288 50.114 76.3376 37.4568 72.9233Z" fill="#D3B94A"/>
<path d="M55.4194 83.1898C57.3601 81.4688 58.4537 79.5744 57.9134 79.0519C57.3398 78.4049 56.2103 78.1738 55.3388 78.4073C54.5919 78.6074 51.7797 80.562 49.2832 82.6988C46.6623 84.869 44.3994 87.8775 44.0194 89.4472C43.7639 90.9836 43.5084 92.52 43.6085 92.8935C43.7085 93.267 44.8046 93.3737 46.1163 93.2891C47.2701 93.1134 49.1197 91.5502 50.0888 89.6892C51.0579 87.8281 53.4787 84.9109 55.4194 83.1898Z" fill="#D3B94A"/>
<path d="M71.9913 83.2866C71.949 82.6307 70.6528 81.777 69.1165 81.5214C67.6714 81.108 65.0146 81.1526 63.2717 81.6196C61.4954 81.9621 59.0323 84.2235 57.4496 86.7827C55.718 89.7822 55.4292 91.1941 56.6164 91.1429C57.6791 91.125 61.5295 89.5595 65.3466 87.8695C69.0059 86.0883 72.067 84.067 71.9913 83.2866Z" fill="#D3B94A"/>
</svg>
