<svg width="369" height="388" viewBox="0 0 369 388" fill="none" xmlns="http://www.w3.org/2000/svg">
<path d="M56.3334 32.7489C64.7468 23.9689 79.7446 12.9938 89.6212 7.87216C105.351 0.189626 111.935 -0.907878 137.175 0.555462C159.489 1.65297 171.195 4.21384 186.559 11.8964C197.533 17.0181 217.286 29.8223 254.232 57.2599L257.524 47.7482C259.353 42.2607 262.645 35.6756 264.84 33.1148C267.035 30.5539 271.059 28.3589 273.253 28.7248C275.814 28.7248 286.422 36.4073 296.299 45.919C306.541 55.7966 314.955 66.04 314.589 68.9666C314.589 71.8933 310.565 80.6733 305.444 87.99C300.323 95.6726 297.03 102.989 298.128 104.453C299.225 106.282 309.468 103.355 320.807 98.5993C332.513 93.8434 344.219 91.2826 346.779 92.3801C348.974 93.4776 355.193 104.087 360.314 115.428C365.435 127.134 368.727 139.573 367.63 142.865C366.533 147.255 359.948 150.548 348.608 152.743C335.44 154.938 333.611 156.035 342.024 156.401C348.243 156.401 355.924 158.596 359.217 161.157C363.972 164.45 366.533 173.595 367.996 191.521C369.825 212.74 369.459 217.861 364.338 221.52C360.314 224.812 355.193 225.178 338.366 219.691L333.611 246.031C331.05 260.298 324.1 281.883 318.613 293.955C312.76 306.028 299.957 324.319 290.446 334.563C280.569 344.806 265.572 357.245 256.792 362.732C248.379 368.22 231.186 375.902 218.749 380.292C200.093 386.511 189.119 387.609 160.952 386.877C129.128 385.414 123.275 383.951 97.6689 371.512C80.4762 363.464 62.1862 350.66 51.2121 339.685C40.9697 329.441 27.8009 311.149 21.5823 298.345C15.3636 285.907 7.68182 265.054 5.12121 251.884C2.19481 238.714 0 215.301 0 199.57C0 184.205 2.56061 158.596 5.85282 143.231C8.77923 127.5 14.632 105.55 18.6559 94.5751C22.6797 83.6 29.6299 68.6008 33.6537 61.6499C38.0433 54.6991 48.2857 41.529 56.3334 32.7489Z" fill="#F6EEC6"/>
<path d="M263.074 84.7007C266.732 72.994 272.219 57.9947 275.511 51.0439L281.73 38.6055L293.435 51.0439C300.386 57.9947 305.507 65.3114 305.873 67.1406C305.873 69.3356 298.557 80.3106 290.143 91.6515C281.364 103.358 272.585 112.504 270.756 112.87C268.927 112.87 264.537 111.407 261.611 109.212C256.855 106.285 256.855 103.358 263.074 84.7007Z" fill="#E49E28"/>
<path d="M279.535 129.333C279.535 127.138 292.338 120.552 308.067 113.967C323.431 107.748 338.795 102.261 341.721 102.261C344.648 101.895 350.135 107.748 353.793 115.431C357.451 123.113 358.914 130.43 357.451 131.893C355.987 133.357 339.16 136.649 320.505 139.21C290.875 143.234 286.119 143.234 283.193 138.478C281.364 135.552 279.535 131.162 279.535 129.333Z" fill="#E49E28"/>
<path d="M294.899 180.915C292.338 178.72 291.241 173.964 292.704 170.306C294.167 165.55 298.922 164.087 313.554 164.087C324.163 164.087 338.429 165.184 345.379 166.282C357.085 168.111 358.548 169.574 360.743 183.476C362.206 191.89 361.84 200.305 360.011 202.5C357.816 204.695 346.842 202.5 328.186 195.549C312.457 189.695 297.459 183.11 294.899 180.915Z" fill="#E49E28"/>
<path d="M159.68 77.8681C156.388 68.7222 157.486 62.1372 165.533 39.0896C172.483 19.3345 176.873 11.2861 180.531 12.3836C183.458 13.1153 184.921 16.7736 183.823 21.1637C182.726 25.5537 186.384 35.0654 192.968 44.9429C199.187 54.0888 202.479 62.1372 200.284 63.2347C198.455 64.3322 191.871 58.8447 175.044 37.6262L170.654 52.2596C166.996 64.698 167.362 70.1856 172.849 87.014C176.507 97.989 180.531 110.793 182.36 115.183C184.189 119.939 184.921 125.061 183.823 127.256C182.726 129.085 180.165 130.914 178.336 130.914C176.507 130.914 172.849 123.963 166.996 99.8182L158.949 107.867C154.559 112.622 149.804 116.281 148.341 116.281C146.512 116.281 145.414 114.086 145.414 111.525C145.048 109.33 149.438 103.111 154.193 97.989C162.607 89.9406 162.973 87.3798 159.68 77.8681Z" fill="#231F12"/>
<path d="M187.481 217.617C186.384 212.13 187.481 205.544 189.31 202.618C191.505 199.691 195.163 197.862 197.724 198.594C199.919 199.691 204.308 204.447 206.503 209.569C209.064 214.69 211.258 222.007 211.258 226.031C211.258 230.055 208.698 234.08 205.771 235.177C202.845 236.275 197.724 234.811 194.797 232.25C191.505 230.055 188.213 223.47 187.481 217.617Z" fill="#231F12"/>
<path d="M130.051 226.763C129.685 223.105 131.514 218.349 134.44 215.788C138.098 212.495 140.659 212.861 146.146 217.983C149.804 221.275 153.828 228.592 154.559 234.08C155.657 239.933 154.559 246.884 152.73 249.811C150.901 252.737 146.877 254.566 144.317 253.469C142.122 252.737 137.732 247.615 135.172 242.494C132.977 237.372 130.416 230.421 130.051 226.763Z" fill="#231F12"/>
<path d="M170.289 265.541C169.923 262.249 172.849 257.493 176.873 255.664C180.531 253.469 184.555 251.64 185.652 251.64C186.75 251.64 190.408 253.469 194.432 256.03C199.553 259.688 200.65 263.346 198.821 270.663C197.358 277.98 194.432 280.906 188.213 280.906C183.823 280.906 177.971 279.077 175.41 276.516C172.849 273.956 170.654 268.834 170.289 265.541Z" fill="#231F12"/>
</svg>
