<svg width="70" height="94" viewBox="0 0 70 94" fill="none" xmlns="http://www.w3.org/2000/svg">
<path d="M0.0251636 4.33752C0.188883 2.37321 0.843758 1.71845 3.13583 0.818138C4.77303 0.245215 8.37487 -0.0821697 11.3218 0.0815226C14.6781 0.327061 17.9524 1.06368 20.1627 2.20952C22.0454 3.10983 24.7468 5.15599 26.1384 6.62922C27.6119 8.0206 29.8221 11.54 31.05 14.4046C32.3598 17.1874 33.6695 19.6427 34.0788 19.8883C34.4063 20.052 35.2249 19.6428 35.9616 18.8243C36.6983 18.0877 37.7625 16.1234 38.2537 14.5683C38.8267 13.0132 40.0546 10.6397 41.0369 9.24829C42.0192 7.8569 43.5746 6.13814 44.475 5.31968C45.3755 4.58307 47.5857 3.10983 49.3866 2.12767C51.2694 1.14552 54.7894 0.245215 57.5726 0.0815226C60.5195 -0.164016 63.7939 0.163369 65.7586 0.818138C68.6237 1.71845 69.033 2.20952 69.2786 4.74675C69.4423 6.38367 68.7874 9.33014 67.8051 11.7037C66.8228 13.9954 65.0218 17.1055 63.7121 18.6606C62.4842 20.2157 59.4554 22.5892 57.0815 23.8988C53.234 26.0268 51.7606 26.2723 38.7449 26.436L38.5811 31.5923C38.3356 35.9301 38.4993 36.6668 39.809 36.6668C40.5458 36.5849 41.6099 37.076 42.1011 37.6489C42.5922 38.2218 43.2471 41.8231 43.5746 45.6698C43.902 49.5166 44.2295 52.7086 44.3113 52.8723C44.3932 53.036 45.9485 52.5449 47.7494 51.8083C49.5503 51.1535 51.8424 50.5806 52.9066 50.5806C53.9708 50.5806 55.6898 51.8083 57.1633 53.4452C59.5372 56.228 59.7009 56.3098 62.0749 55.0821C63.3846 54.4274 65.2674 53.8544 66.1679 53.8544C67.3139 53.8544 67.9688 54.5911 68.2962 56.1461C68.6237 57.3738 68.7056 60.7295 68.5418 63.676C68.2963 67.5228 67.4777 70.4692 65.5949 74.316C64.2033 77.2625 61.42 81.2729 59.4554 83.3191C57.4907 85.3652 53.6433 88.148 50.942 89.6212C48.2406 91.0945 43.5746 92.6495 40.382 93.2224C35.8798 94.0409 33.5058 94.0409 29.331 93.3043C26.384 92.7314 22.0454 91.4218 19.7534 90.276C17.3794 89.1301 13.3683 86.2655 10.8307 83.9738C7.8837 81.1092 5.4279 77.7535 3.70885 74.316C1.74421 70.1418 1.08934 67.6046 0.843758 62.4483C0.598178 57.5375 0.92561 54.2637 2.23537 49.3529C3.21769 45.7517 7.41704 35.2754 9.1361 31.5923C13.4223 24.7253 18.9748 27.3552 20.0464 28.1345C21.7998 28.9138 27.2549 30.6673 30.4696 33.6871L29.2032 26.436C28.0572 26.1086 15.2731 26.436 12.5497 24.2261C11.1581 23.4895 8.53858 21.3615 6.57394 19.3972C4.52744 17.2692 2.39909 13.9954 1.41677 11.2944C0.516315 8.83906 -0.138556 5.72891 0.0251636 4.33752Z" fill="#F6EEC6"/>
<path d="M2.56279 6.21998C2.64465 4.33752 3.29953 3.27352 4.77301 2.5369C5.91905 1.96398 8.70228 1.4729 10.9125 1.4729C13.7776 1.4729 16.3152 2.12766 19.5078 3.68274C22.2091 5.07413 25.0742 7.36583 26.6296 9.49383C28.1031 11.3763 29.6584 14.1591 29.9858 15.6323C30.3133 17.0237 31.5412 19.2335 34.6518 22.7529L36.7802 20.5431C38.0081 19.2335 39.3997 16.7781 39.9727 14.9775C40.6276 13.0132 42.756 9.9849 45.2118 7.61136C47.7494 5.07413 50.6964 3.10982 52.661 2.45505C54.4619 1.96397 57.5726 1.55474 59.6191 1.55474C61.6656 1.63659 64.2032 1.88213 65.3493 2.20952C66.7136 2.59146 67.4776 3.43721 67.6413 4.74675C67.8051 5.89259 67.3139 8.42982 66.659 10.476C66.0042 12.5221 63.8758 15.796 61.9112 17.8421C59.9465 19.8064 56.754 22.18 54.7075 22.9984C51.6787 24.308 49.9596 24.5535 44.7206 24.0624C39.9727 23.735 38.1718 23.8169 37.7625 24.6354C37.3532 25.1264 36.9439 28.7277 36.6983 32.5744C36.289 39.0403 36.1253 39.5314 34.4881 39.7769C32.6872 39.9406 32.6053 39.6951 32.6053 33.2292C32.6053 29.4643 32.196 25.8631 31.7867 25.2083C31.2137 24.308 29.3309 23.9806 23.8463 23.9806C18.0343 23.9806 15.9878 23.6532 13.3683 22.18C11.5674 21.1978 9.11157 19.3972 7.96554 18.0877C6.73764 16.86 5.01858 14.2409 4.03626 12.3584C3.05394 10.3941 2.39907 7.61136 2.56279 6.21998Z" fill="#D5B73E"/>
<path d="M18.3617 58.5196C17.2157 57.783 16.2334 56.719 16.2334 56.3098C16.2334 55.8187 17.7887 56.4735 19.5896 57.6193C21.3905 58.847 22.7822 59.911 22.7822 60.0747C22.7822 60.2384 21.4724 61.1387 19.9171 62.039C18.3617 62.9393 16.5608 63.5941 15.9878 63.4304C15.4966 63.2667 16.2334 62.4482 20.4082 59.9929L18.3617 58.5196Z" fill="#231F12"/>
<path d="M29.1672 59.3381C29.0854 57.783 29.4128 56.3098 29.7402 55.9824C30.1495 55.655 31.05 55.5732 31.7049 55.655C32.4416 55.8187 33.0965 56.9645 33.2602 58.3559C33.4239 59.7473 33.3421 61.6298 33.0965 62.6119C32.8509 63.6759 32.0323 64.4944 31.3774 64.4944C30.7226 64.4944 29.9858 63.9215 29.7402 63.2667C29.4947 62.6119 29.2491 60.8113 29.1672 59.3381Z" fill="#231F12"/>
<path d="M33.4239 65.9676C35.4704 64.8218 37.5988 63.2667 38.2537 62.5301C38.8267 61.7935 39.8909 61.2205 40.5457 61.2205C41.5281 61.2205 41.2825 61.7935 39.8909 63.3486C38.8267 64.4944 36.0434 66.295 33.8332 67.359C31.5412 68.423 28.103 69.5689 26.0566 69.8144C24.0101 70.1418 20.2445 69.9781 17.625 69.487C15.0873 68.9959 12.959 68.2593 12.959 67.7682C12.959 67.2772 13.9413 67.1953 15.5785 67.5227C17.052 67.9319 20.8175 68.1775 24.0101 68.1775C28.5942 68.0956 30.477 67.6864 33.4239 65.9676Z" fill="#231F12"/>
</svg>
