<svg width="665" height="240" viewBox="0 0 665 240" fill="none" xmlns="http://www.w3.org/2000/svg">
<path d="M105.277 19.1239C108.072 16.5434 111.728 13.9629 113.448 13.3178C115.168 12.6727 119.898 12.0275 123.554 12.0275C127.424 11.8125 132.8 12.8877 135.38 14.178C138.175 15.4682 142.261 18.0487 144.411 19.769C146.561 21.4893 153.442 23.2097 159.462 23.6398C168.063 24.2849 171.718 25.7902 176.449 30.521C179.674 33.7467 183.115 39.3377 184.19 42.9934C185.05 46.6491 185.48 53.3154 185.05 58.0463C184.405 64.0674 185.265 67.7231 187.63 69.8735C189.35 71.5938 191.5 76.9699 192.145 81.7008C193.221 87.5069 192.36 92.4528 189.995 97.3987C188.06 101.054 183.975 106.215 180.534 108.581C177.309 111.161 173.009 113.097 170.858 112.882C168.708 112.882 166.128 115.677 164.408 119.978C162.903 123.634 158.387 129.01 154.732 131.805C149.786 135.031 144.841 136.536 137.53 136.536C130.219 136.536 125.489 135.031 120.329 131.16C115.383 127.289 110.653 125.784 103.772 125.784C95.8162 125.784 92.8059 124.494 85.9252 118.473C78.3995 111.376 77.9694 110.301 77.9694 97.3987C77.7544 88.7971 76.4643 81.9158 74.3141 78.4751C72.3789 75.4646 70.2287 70.7337 69.3686 67.7231C68.5085 64.4975 69.1536 58.6914 71.3038 53.3154C73.454 47.2943 77.3244 42.5633 81.6248 39.7678C85.4952 37.4024 90.2256 35.682 91.9458 35.682C93.6659 35.682 96.4612 32.8865 97.7513 29.6609C99.2565 26.4353 102.697 21.4893 105.277 19.1239Z" fill="#F6EEC6"/>
<path d="M110.438 24.715C112.588 22.7796 115.813 20.6292 117.533 19.9841C119.253 19.339 122.264 18.6938 123.984 18.6938C125.704 18.4788 130.434 20.4142 134.305 22.7796C138.175 25.1451 141.185 27.9406 141.185 29.2309C141.185 30.3061 145.701 31.1662 151.506 30.9512C157.957 30.5211 163.763 31.8113 167.633 34.1768C170.858 36.1122 174.729 40.1979 176.234 43.4235C178.169 47.5093 178.169 51.165 176.664 57.4011C174.729 64.4975 175.159 66.4329 179.244 71.5939C182.254 75.2495 184.19 80.6255 184.19 85.5715C184.19 91.3776 182.684 95.2483 178.814 99.1191C175.804 102.13 170.428 105.14 166.773 106C162.043 107.076 159.247 109.656 157.527 114.172C156.022 117.613 152.152 122.774 148.496 125.569C145.056 128.15 140.325 130.3 137.96 130.3C135.595 130.3 131.295 128.58 128.284 126.644C125.274 124.709 122.264 121.698 121.404 120.193C120.328 118.258 115.813 117.613 108.072 117.828C99.0414 118.258 95.6011 117.613 91.9457 114.172C89.3655 111.806 86.3552 107.506 85.0651 104.495C83.3449 100.624 83.3449 96.7536 85.0651 90.9475C87.2153 83.6361 87.0003 82.3459 82.0548 76.5398C79.0445 72.669 76.6793 67.293 76.6793 63.6374C76.6793 59.9817 77.9694 54.8207 79.6896 51.8101C81.6247 48.3695 86.1402 45.3589 91.9457 43.6386C98.8264 41.7032 101.837 39.3378 103.772 34.6069C105.277 30.9512 108.287 26.4353 110.438 24.715Z" fill="#FFA000"/>
<path d="M114.093 61.4868C116.243 58.6913 120.113 55.8957 122.694 54.8205C125.274 53.9604 129.574 53.1002 132.155 53.1002C134.95 52.8852 141.637 54.6176 145.938 58.9184C150.453 63.4343 152.152 70.0884 152.152 73.314C152.152 76.3246 150.431 81.4856 148.281 85.1413C146.346 88.5819 142.261 92.6677 139.25 93.9579C136.24 95.2482 131.295 95.6783 127.854 95.0331C124.629 94.388 119.468 91.5925 116.458 88.797C112.158 85.3563 110.653 81.9156 110.438 75.2494C110.223 69.4433 111.513 64.4974 114.093 61.4868Z" fill="#F6EEC6"/>
<path d="M544.277 7.12388C547.072 4.54339 550.728 1.96292 552.448 1.3178C554.168 0.672675 558.898 0.027537 562.554 0.027537C566.424 -0.187504 571.8 0.887707 574.38 2.17795C577.175 3.4682 581.261 6.04868 583.411 7.76901C585.561 9.48934 592.442 11.2097 598.462 11.6398C607.063 12.2849 610.718 13.7902 615.449 18.521C618.674 21.7467 622.115 27.3377 623.19 30.9934C624.05 34.6491 624.48 41.3154 624.05 46.0463C623.405 52.0674 624.265 55.7231 626.63 57.8735C628.35 59.5938 630.5 64.9699 631.145 69.7008C632.221 75.5069 631.36 80.4528 628.995 85.3987C627.06 89.0544 622.975 94.2154 619.534 96.5808C616.309 99.1613 612.009 101.097 609.858 100.882C607.708 100.882 605.128 103.677 603.408 107.978C601.903 111.634 597.387 117.01 593.732 119.805C588.786 123.031 583.841 124.536 576.53 124.536C569.219 124.536 564.489 123.031 559.329 119.16C554.383 115.289 549.653 113.784 542.772 113.784C534.816 113.784 531.806 112.494 524.925 106.473C517.399 99.3764 516.969 98.3011 516.969 85.3987C516.754 76.7971 515.464 69.9158 513.314 66.4751C511.379 63.4646 509.229 58.7337 508.369 55.7231C507.509 52.4975 508.154 46.6914 510.304 41.3154C512.454 35.2943 516.324 30.5633 520.625 27.7678C524.495 25.4024 529.226 23.682 530.946 23.682C532.666 23.682 535.461 20.8865 536.751 17.6609C538.256 14.4353 541.697 9.48933 544.277 7.12388Z" fill="#F6EEC6"/>
<path d="M549.438 12.715C551.588 10.7796 554.813 8.62922 556.533 7.9841C558.253 7.33898 561.264 6.69384 562.984 6.69384C564.704 6.4788 569.435 8.41417 573.305 10.7796C577.175 13.1451 580.186 15.9406 580.186 17.2309C580.186 18.3061 584.701 19.1662 590.507 18.9512C596.957 18.5211 602.763 19.8113 606.633 22.1768C609.858 24.1122 613.729 28.1979 615.234 31.4235C617.169 35.5093 617.169 39.165 615.664 45.4011C613.729 52.4975 614.159 54.4329 618.244 59.5939C621.255 63.2495 623.19 68.6255 623.19 73.5715C623.19 79.3776 621.685 83.2483 617.814 87.1191C614.804 90.1296 609.428 93.1402 605.773 94.0004C601.043 95.0756 598.247 97.6561 596.527 102.172C595.022 105.613 591.152 110.774 587.496 113.569C584.056 116.15 579.325 118.3 576.96 118.3C574.595 118.3 570.295 116.58 567.284 114.644C564.274 112.709 561.264 109.698 560.404 108.193C559.329 106.258 554.813 105.613 547.072 105.828C538.041 106.258 534.601 105.613 530.946 102.172C528.366 99.8065 525.355 95.5056 524.065 92.4951C522.345 88.6243 522.345 84.7536 524.065 78.9475C526.215 71.6361 526 70.3459 521.055 64.5398C518.045 60.669 515.679 55.293 515.679 51.6374C515.679 47.9817 516.969 42.8207 518.69 39.8101C520.625 36.3695 525.14 33.3589 530.946 31.6386C537.826 29.7032 540.837 27.3378 542.772 22.6069C544.277 18.9512 547.287 14.4353 549.438 12.715Z" fill="#D79B8F"/>
<path d="M553.093 49.4868C555.243 46.6913 559.113 43.8957 561.694 42.8205C564.274 41.9604 568.574 41.1002 571.155 41.1002C573.95 40.8852 580.637 42.6176 584.938 46.9184C589.453 51.4343 591.152 58.0884 591.152 61.314C591.152 64.3246 589.431 69.4856 587.281 73.1413C585.346 76.5819 581.261 80.6677 578.25 81.9579C575.24 83.2482 570.295 83.6783 566.854 83.0331C563.629 82.388 558.468 79.5925 555.458 76.797C551.158 73.3563 549.653 69.9156 549.438 63.2494C549.223 57.4433 550.513 52.4974 553.093 49.4868Z" fill="#F6EEC6"/>
<path d="M84.2771 122.124C87.0723 119.543 90.7277 116.963 92.4478 116.318C94.168 115.673 98.8985 115.028 102.554 115.028C106.424 114.812 111.8 115.888 114.38 117.178C117.175 118.468 121.261 121.049 123.411 122.769C125.561 124.489 132.442 126.21 138.462 126.64C147.063 127.285 150.718 128.79 155.449 133.521C158.674 136.747 162.115 142.338 163.19 145.993C164.05 149.649 164.48 156.315 164.05 161.046C163.405 167.067 164.265 170.723 166.63 172.873C168.35 174.594 170.5 179.97 171.145 184.701C172.221 190.507 171.36 195.453 168.995 200.399C167.06 204.054 162.975 209.215 159.534 211.581C156.309 214.161 152.009 216.097 149.858 215.882C147.708 215.882 145.128 218.677 143.408 222.978C141.903 226.634 137.387 232.01 133.732 234.805C128.786 238.031 123.841 239.536 116.53 239.536C109.219 239.536 104.489 238.031 99.3285 234.16C94.3831 230.289 89.6526 228.784 82.7719 228.784C74.8162 228.784 71.8059 227.494 64.9252 221.473C57.3995 214.376 56.9694 213.301 56.9694 200.399C56.7544 191.797 55.4643 184.916 53.3141 181.475C51.3789 178.465 49.2287 173.734 48.3686 170.723C47.5085 167.498 48.1536 161.691 50.3038 156.315C52.454 150.294 56.3244 145.563 60.6248 142.768C64.4952 140.402 69.2256 138.682 70.9458 138.682C72.6659 138.682 75.4612 135.887 76.7513 132.661C78.2565 129.435 81.6968 124.489 84.2771 122.124Z" fill="#F6EEC6"/>
<path d="M89.4375 127.715C91.5877 125.78 94.813 123.629 96.5332 122.984C98.2534 122.339 101.264 121.694 102.984 121.694C104.704 121.479 109.434 123.414 113.305 125.78C117.175 128.145 120.185 130.941 120.185 132.231C120.185 133.306 124.701 134.166 130.506 133.951C136.957 133.521 142.763 134.811 146.633 137.177C149.858 139.112 153.729 143.198 155.234 146.424C157.169 150.509 157.169 154.165 155.664 160.401C153.729 167.497 154.159 169.433 158.244 174.594C161.254 178.25 163.19 183.626 163.19 188.571C163.19 194.378 161.684 198.248 157.814 202.119C154.804 205.13 149.428 208.14 145.773 209C141.043 210.076 138.247 212.656 136.527 217.172C135.022 220.613 131.152 225.774 127.496 228.569C124.056 231.15 119.325 233.3 116.96 233.3C114.595 233.3 110.295 231.58 107.284 229.644C104.274 227.709 101.264 224.698 100.404 223.193C99.3285 221.258 94.813 220.613 87.0723 220.828C78.0414 221.258 74.6011 220.613 70.9457 217.172C68.3655 214.806 65.3552 210.506 64.0651 207.495C62.3449 203.624 62.3449 199.754 64.0651 193.948C66.2153 186.636 66.0003 185.346 61.0548 179.54C58.0445 175.669 55.6793 170.293 55.6793 166.637C55.6793 162.982 56.9694 157.821 58.6896 154.81C60.6247 151.369 65.1402 148.359 70.9457 146.639C77.8264 144.703 80.8367 142.338 82.7719 137.607C84.277 133.951 87.2873 129.435 89.4375 127.715Z" fill="#D79B8F"/>
<path d="M93.0929 164.487C95.2431 161.691 99.1135 158.896 101.694 157.821C104.274 156.96 108.574 156.1 111.155 156.1C113.95 155.885 120.637 157.618 124.938 161.918C129.453 166.434 131.152 173.088 131.152 176.314C131.152 179.325 129.431 184.486 127.281 188.141C125.346 191.582 121.261 195.668 118.25 196.958C115.24 198.248 110.295 198.678 106.854 198.033C103.629 197.388 98.4684 194.592 95.4581 191.797C91.1577 188.356 89.6526 184.916 89.4375 178.249C89.2225 172.443 90.5127 167.497 93.0929 164.487Z" fill="#F6EEC6"/>
<path d="M592.556 81.0263C596.327 83.7601 596.481 83.5948 601.393 78.306L601.398 78.4654C605.85 73.6725 607.42 72.9761 614.911 72.6997C620.648 72.488 625.955 73.569 630.665 75.7894C634.561 77.5609 639.477 81.0505 641.331 83.6955C643.845 86.9545 644.942 90.7447 645.154 96.4828C645.436 104.134 645.773 104.6 651.115 106.638C654.839 108.096 657.808 110.7 659.867 114.614C661.42 117.749 662.895 123.121 663.012 126.309C663.136 129.657 662.533 134.946 661.688 138.01C660.684 141.079 657.839 146.132 655.235 149.101C652.325 152.401 648.428 154.939 644.94 155.546C640.028 156.526 639.414 157.187 639.26 161.662C639.207 164.537 637.919 168.574 636.249 170.87C634.737 173.161 631.03 176.49 628.066 178.355C624.17 180.893 619.896 181.849 612.087 182.137C602.365 182.495 600.913 182.07 596.291 177.931C593.482 175.322 590.796 171.75 590.248 169.855C589.658 166.844 589.009 166.549 586.346 167.924C584.628 168.945 581.464 169.7 579.233 169.782C577.002 169.865 573.301 169.044 570.704 167.862C568.266 166.676 564.66 164.095 562.83 162.088C560.847 160.246 557.984 156.201 556.444 153.385C554.91 150.729 553.571 144.713 553.412 140.409C553.165 133.715 553.885 131.613 562.327 122.523L558.916 116.584C555.865 111.748 555.635 109.842 556.71 104.375C557.537 100.833 559.881 95.1604 561.989 91.7309C564.103 88.4607 568.572 84.1459 572.014 82.2632C575.455 80.3805 580.662 78.7518 583.371 78.6519C586.234 78.3866 590.425 79.5088 592.556 81.0263Z" fill="#F6EEC6"/>
<path d="M601.054 90.768C602.861 83.5188 604.219 81.3938 608.44 79.0035C611.415 77.4572 615.53 76.5074 618.575 76.8738C621.462 77.2461 626.467 78.8171 629.714 80.2934C633.119 81.7638 637.074 85.1293 638.449 87.7919C639.824 90.4546 641.075 94.0794 641.145 95.9922C641.381 98.0584 639.315 102.604 636.735 106.21C634.155 109.817 632.035 112.928 632.2 113.081C632.212 113.389 633.827 112.744 635.923 111.907L636.144 111.819C638.346 110.939 641.982 110.007 644.372 109.919C646.923 109.825 649.986 110.669 651.462 111.732C652.937 112.795 654.938 115.115 655.965 116.993C657.157 119.024 658.118 123.457 658.248 126.964C658.377 130.47 657.462 135.931 656.298 139.007C655.135 142.082 652.248 146.019 649.751 147.548C646.947 149.407 643.783 150.162 639.934 149.666C636.888 149.299 632.863 148.331 631.24 147.593C628.33 146.583 628.501 146.896 632.095 153.466L632.095 153.467C635.854 160.191 635.872 160.669 633.51 165.864C632.175 168.626 629.271 172.085 626.768 173.455C624.424 174.818 620.014 176.417 617.01 177.167C614.005 177.916 608.734 177.791 605.352 176.958C601.804 175.972 598.21 173.711 596.522 171.219C594.486 167.942 593.902 165.091 595.509 152.422L590.432 157.558C587.663 160.373 584.097 163.218 582.527 163.915C581.11 164.446 577.427 164.103 574.517 163.093C571.766 162.077 567.163 158.416 564.33 155.169C560.989 151.143 558.906 146.591 558.251 141.827C557.396 135.953 557.798 133.863 560.401 130.894C562.545 128.421 566.464 126.52 579.15 124.296L573.643 122.105C570.567 120.942 566.637 118.214 564.96 116.041C563.284 113.869 561.715 110.256 561.786 107.859C561.692 105.309 562.507 101.448 563.694 99.0099C564.715 96.4184 568.222 91.9795 571.31 89.1522C575.619 84.8433 578.287 83.6276 583.228 83.4453C588.328 83.2571 590.276 84.1429 593.115 87.5495C594.956 89.8757 597.004 93.4712 597.565 95.685C598.65 99.1564 599.105 98.5012 601.054 90.768Z" fill="#D79B8F"/>
<path d="M603.589 116.212C606.026 117.399 606.971 117.045 607.544 115.268C607.815 113.981 608.571 112.836 609.049 112.818C609.527 112.801 611.139 113.22 612.591 113.645C614.368 114.218 615.388 115.936 615.158 118.339C615.093 120.895 615.777 122.147 617.371 122.088C618.965 122.029 619.649 123.281 619.419 125.683C619.293 128.029 618.013 129.406 615.581 129.815C613.252 130.114 612.126 131.326 612.205 133.451C612.283 135.577 611.26 136.678 609.135 136.757C607.381 136.821 605.587 135.77 605.062 134.513C604.537 133.255 603.226 132.346 602.111 132.387C601.16 132.582 599.248 132.653 598.126 132.534C597.17 132.57 596.155 131.011 596.09 129.258C596.026 127.504 596.61 126.046 597.566 126.011C598.523 125.976 598.765 123.892 598.193 121.359C597.62 118.827 597.851 116.424 598.784 115.751C599.563 115.243 601.806 115.48 603.589 116.212Z" fill="#F6EEC6"/>
<path d="M41.5556 71.0263C45.3272 73.7601 45.4807 73.5948 50.3926 68.306L50.3985 68.4654C54.8499 63.6725 56.4201 62.9761 63.9109 62.6997C69.6485 62.488 74.955 63.569 79.6652 65.7894C83.5609 67.5609 88.4775 71.0505 90.3306 73.6955C92.8448 76.9545 93.9423 80.7447 94.154 86.4828C94.4364 94.1337 94.7728 94.6001 100.115 96.6375C103.839 98.0962 106.808 100.7 108.867 104.614C110.42 107.749 111.895 113.121 112.012 116.309C112.136 119.657 111.533 124.946 110.688 128.01C109.684 131.079 106.839 136.132 104.235 139.101C101.325 142.401 97.4283 144.939 93.9397 145.546C89.0283 146.526 88.4144 147.187 88.2603 151.662C88.2068 154.537 86.9194 158.574 85.2486 160.87C83.7372 163.161 80.0298 166.49 77.0663 168.355C73.1701 170.893 68.8962 171.849 61.0867 172.137C51.3646 172.495 49.9126 172.07 45.2912 167.931C42.4818 165.322 39.7964 161.75 39.2477 159.855C38.6578 156.844 38.0086 156.549 35.3462 157.924C33.6283 158.945 30.4643 159.7 28.233 159.782C26.0017 159.865 22.3007 159.044 19.7036 157.862C17.2659 156.676 13.6596 154.095 11.8299 152.088C9.84682 150.246 6.98444 146.201 5.44417 143.385C3.90977 140.729 2.57063 134.713 2.41182 130.409C2.16478 123.715 2.8852 121.613 11.3275 112.523L7.91643 106.584C4.86528 101.748 4.63533 99.8416 5.71037 94.3752C6.53723 90.8333 8.88141 85.1604 10.9892 81.7309C13.1028 78.4607 17.5719 74.1459 21.0135 72.2632C24.4551 70.3805 29.6617 68.7518 32.3711 68.6519C35.234 68.3866 39.4249 69.5088 41.5556 71.0263Z" fill="#F6EEC6"/>
<path d="M50.0536 80.768C51.8609 73.5188 53.2188 71.3938 57.4396 69.0035C60.4149 67.4572 64.5293 66.5074 67.5752 66.8738C70.4616 67.2461 75.467 68.8171 78.7134 70.2934C82.1192 71.7638 86.0737 75.1293 87.4487 77.7919C88.8237 80.4546 90.0746 84.0794 90.1452 85.9922C90.3811 88.0584 88.3145 92.6037 85.7344 96.2103C83.1544 99.817 81.0349 102.928 81.2001 103.081C81.2115 103.389 82.8272 102.744 84.9231 101.907L85.1434 101.819C87.3453 100.939 90.9816 100.007 93.3723 99.9187C95.9223 99.8246 98.9858 100.669 100.461 101.732C101.937 102.795 103.938 105.115 104.965 106.993C106.157 109.024 107.118 113.457 107.248 116.964C107.377 120.47 106.461 125.931 105.298 129.007C104.135 132.082 101.248 136.019 98.7507 137.548C95.9466 139.407 92.7826 140.162 88.934 139.666C85.8881 139.299 81.8625 138.331 80.2393 137.593C77.3294 136.583 77.5005 136.896 81.0943 143.466L81.0945 143.467C84.8537 150.191 84.8713 150.669 82.5095 155.864C81.1751 158.626 78.2704 162.085 75.7674 163.455C73.4238 164.818 69.0142 166.417 66.0095 167.167C63.0049 167.916 57.7336 167.791 54.3514 166.958C50.8039 165.972 47.2094 163.711 45.5215 161.219C43.4854 157.942 42.9014 155.091 44.5086 142.422L39.4315 147.558C36.6627 150.373 33.097 153.218 31.5267 153.915C30.11 154.446 26.4266 154.103 23.5166 153.093C20.766 152.077 16.1623 148.416 13.3293 145.169C9.98885 141.143 7.90574 136.591 7.25115 131.827C6.396 125.953 6.79766 123.863 9.40121 120.894C11.5443 118.421 15.464 116.52 28.1496 114.296L22.6425 112.105C19.5672 110.942 15.6363 108.214 13.9602 106.041C12.2841 103.869 10.7144 100.256 10.7855 97.8588C10.6914 95.3086 11.5065 91.4478 12.6933 89.0099C13.7148 86.4184 17.2217 81.9795 20.3093 79.1522C24.619 74.8433 27.2872 73.6276 32.2279 73.4453C37.328 73.2571 39.2759 74.1429 42.1147 77.5495C43.9561 79.8757 46.0039 83.4712 46.5644 85.685C47.6501 89.1564 48.1047 88.5012 50.0536 80.768Z" fill="#D79B8F"/>
<path d="M52.5884 106.212C55.0262 107.399 55.9707 107.045 56.5435 105.268C56.8152 103.981 57.5709 102.836 58.049 102.818C58.5272 102.801 60.1386 103.22 61.5907 103.645C63.3673 104.218 64.3883 105.936 64.1578 108.339C64.0925 110.895 64.7771 112.147 66.3709 112.088C67.9646 112.029 68.6492 113.281 68.4187 115.683C68.2925 118.029 67.0133 119.406 64.5813 119.815C62.2516 120.114 61.1259 121.326 61.2044 123.451C61.2828 125.577 60.2595 126.678 58.1344 126.757C56.3813 126.821 54.5869 125.77 54.0618 124.513C53.5366 123.255 52.2262 122.346 51.1106 122.387C50.1602 122.582 48.2477 122.653 47.1261 122.534C46.1699 122.57 45.1548 121.011 45.0901 119.258C45.0254 117.504 45.61 116.046 46.5662 116.011C47.5225 115.976 47.7648 113.892 47.1925 111.359C46.6203 108.827 46.8508 106.424 47.7836 105.751C48.5628 105.243 50.8059 105.48 52.5884 106.212Z" fill="#F6EEC6"/>
<path d="M526.698 130.225C529.14 127.97 532.334 125.715 533.837 125.151C535.34 124.588 539.473 124.024 542.667 124.024C546.049 123.836 550.746 124.776 553 125.903C555.443 127.03 559.013 129.285 560.891 130.788C562.77 132.291 568.782 133.795 574.043 134.17C581.558 134.734 584.752 136.049 588.885 140.183C591.703 143.001 594.709 147.887 595.649 151.081C596.4 154.275 596.776 160.1 596.4 164.234C595.837 169.495 596.588 172.689 598.655 174.568C600.158 176.071 602.037 180.768 602.6 184.902C603.54 189.975 602.788 194.297 600.721 198.618C599.03 201.813 595.461 206.322 592.455 208.389C589.637 210.644 585.879 212.335 584 212.147C582.121 212.147 579.867 214.589 578.364 218.347C577.049 221.542 573.103 226.239 569.909 228.682C565.588 231.5 561.267 232.815 554.879 232.815C548.491 232.815 544.358 231.5 539.849 228.118C535.528 224.736 531.395 223.42 525.382 223.42C518.431 223.42 515.801 222.293 509.789 217.032C503.213 210.832 502.837 209.892 502.837 198.618C502.649 191.103 501.522 185.09 499.643 182.084C497.952 179.453 496.074 175.319 495.322 172.689C494.571 169.87 495.134 164.797 497.013 160.1C498.892 154.839 502.274 150.705 506.031 148.263C509.413 146.196 513.546 144.692 515.049 144.692C516.552 144.692 518.995 142.25 520.122 139.431C521.437 136.613 524.443 132.291 526.698 130.225Z" fill="#F6EEC6"/>
<path d="M531.207 135.11C533.085 133.419 535.904 131.54 537.407 130.976C538.91 130.412 541.54 129.849 543.043 129.849C544.546 129.661 548.679 131.352 552.061 133.419C555.443 135.486 558.073 137.928 558.073 139.056C558.073 139.995 562.019 140.747 567.091 140.559C572.728 140.183 577.8 141.31 581.182 143.377C584 145.068 587.382 148.638 588.697 151.457C590.388 155.027 590.388 158.221 589.073 163.67C587.382 169.87 587.758 171.561 591.327 176.071C593.958 179.265 595.649 183.962 595.649 188.284C595.649 193.357 594.333 196.739 590.952 200.121C588.321 202.752 583.624 205.383 580.431 206.134C576.297 207.074 573.855 209.328 572.352 213.274C571.037 216.28 567.655 220.79 564.461 223.233C561.455 225.487 557.322 227.366 555.255 227.366C553.188 227.366 549.431 225.863 546.8 224.172C544.17 222.481 541.54 219.85 540.788 218.535C539.849 216.844 535.904 216.28 529.14 216.468C521.249 216.844 518.243 216.28 515.049 213.274C512.795 211.207 510.164 207.449 509.037 204.819C507.534 201.437 507.534 198.055 509.037 192.981C510.916 186.593 510.728 185.466 506.407 180.392C503.776 177.01 501.71 172.313 501.71 169.119C501.71 165.925 502.837 161.415 504.34 158.785C506.031 155.778 509.976 153.148 515.049 151.645C521.061 149.954 523.692 147.887 525.382 143.753C526.698 140.559 529.328 136.613 531.207 135.11Z" fill="#FFA000"/>
<path d="M534.401 167.24C536.279 164.797 539.661 162.354 541.916 161.415C544.17 160.663 547.928 159.912 550.182 159.912C552.625 159.724 558.468 161.238 562.225 164.995C566.171 168.941 567.655 174.755 567.655 177.574C567.655 180.204 566.152 184.714 564.273 187.908C562.582 190.914 559.012 194.484 556.382 195.612C553.752 196.739 549.431 197.115 546.425 196.551C543.606 195.988 539.097 193.545 536.467 191.102C532.71 188.096 531.394 185.09 531.207 179.265C531.019 174.192 532.146 169.87 534.401 167.24Z" fill="#F6EEC6"/>
<rect x="68.5" y="69.5" width="529" height="110.307" rx="55.1533" fill="#A1753E" stroke="#F6EEC6" stroke-width="9"/>
<path d="M117.619 95.7251C117.428 93.8045 118 91.4998 118.954 90.9237C119.907 90.1554 123.531 89.5793 127.345 89.5793C131.923 89.3872 135.737 90.9237 138.979 93.9966C141.649 96.4933 144.891 100.142 146.227 102.255C148.324 105.328 148.897 105.52 149.85 103.023C150.613 101.487 153.474 97.8378 156.335 94.9569C160.34 90.9237 163.391 89.5793 169.303 89.5793C173.69 89.5793 177.504 90.3475 178.076 91.4998C178.648 92.6522 177.695 96.4933 176.169 100.142C174.643 103.984 170.829 108.209 167.587 109.745C164.345 111.282 159.767 112.626 157.097 112.626C153.664 112.626 152.139 113.779 151.757 116.851C151.567 119.348 149.85 121.461 148.134 121.653C145.654 122.037 144.701 120.885 144.701 117.428C144.701 114.227 143.62 112.562 141.459 112.434C139.551 112.434 135.928 112.05 133.258 111.666C130.588 111.474 126.201 108.401 123.34 105.136C120.289 101.871 117.81 97.6457 117.619 95.7251Z" fill="#D3B94A"/>
<path d="M120.493 116.168C122.131 112.89 124.314 109.065 125.224 107.972C126.316 106.697 128.681 105.604 130.501 105.604C132.684 105.604 134.867 107.79 136.141 111.251C138.142 115.986 139.234 116.715 143.055 115.622C145.602 114.893 148.331 114.347 149.423 114.165C150.333 113.983 151.424 116.897 151.606 120.722C152.152 126.368 152.698 127.279 155.791 126.55C157.792 126.004 160.704 126.55 162.159 127.461C163.615 128.371 166.526 128.918 168.527 128.371C171.62 127.643 172.166 128.371 172.166 133.471C172.166 136.567 170.711 142.214 168.891 145.674C167.254 149.135 162.887 153.87 159.43 156.238C155.245 158.97 150.333 160.245 145.238 160.245C141.053 160.245 134.867 158.97 131.592 157.513C128.499 156.056 123.95 152.049 121.767 148.77C118.674 144.399 117.582 140.21 117.582 132.56C117.582 126.368 118.856 119.447 120.493 116.168Z" fill="#F6EEC6"/>
<path d="M188.636 152V105.455H204.364C208.015 105.455 211 106.114 213.318 107.432C215.652 108.735 217.379 110.5 218.5 112.727C219.621 114.955 220.182 117.439 220.182 120.182C220.182 122.924 219.621 125.417 218.5 127.659C217.394 129.902 215.682 131.689 213.364 133.023C211.045 134.341 208.076 135 204.455 135H193.182V130H204.273C206.773 130 208.78 129.568 210.295 128.705C211.811 127.841 212.909 126.674 213.591 125.205C214.288 123.72 214.636 122.045 214.636 120.182C214.636 118.318 214.288 116.652 213.591 115.182C212.909 113.712 211.803 112.561 210.273 111.727C208.742 110.879 206.712 110.455 204.182 110.455H194.273V152H188.636ZM233.898 105.455V152H228.534V105.455H233.898ZM253.994 152.818C251.782 152.818 249.775 152.402 247.972 151.568C246.169 150.72 244.737 149.5 243.676 147.909C242.616 146.303 242.085 144.364 242.085 142.091C242.085 140.091 242.479 138.47 243.267 137.227C244.055 135.97 245.108 134.985 246.426 134.273C247.744 133.561 249.199 133.03 250.79 132.682C252.396 132.318 254.009 132.03 255.631 131.818C257.752 131.545 259.472 131.341 260.79 131.205C262.123 131.053 263.093 130.803 263.699 130.455C264.32 130.106 264.631 129.5 264.631 128.636V128.455C264.631 126.212 264.017 124.47 262.79 123.227C261.578 121.985 259.737 121.364 257.267 121.364C254.706 121.364 252.699 121.924 251.244 123.045C249.79 124.167 248.767 125.364 248.176 126.636L243.085 124.818C243.994 122.697 245.206 121.045 246.722 119.864C248.252 118.667 249.919 117.833 251.722 117.364C253.54 116.879 255.328 116.636 257.085 116.636C258.206 116.636 259.494 116.773 260.949 117.045C262.419 117.303 263.835 117.841 265.199 118.659C266.578 119.477 267.722 120.712 268.631 122.364C269.54 124.015 269.994 126.227 269.994 129V152H264.631V147.273H264.358C263.994 148.03 263.388 148.841 262.54 149.705C261.691 150.568 260.563 151.303 259.153 151.909C257.744 152.515 256.025 152.818 253.994 152.818ZM254.812 148C256.934 148 258.722 147.583 260.176 146.75C261.646 145.917 262.752 144.841 263.494 143.523C264.252 142.205 264.631 140.818 264.631 139.364V134.455C264.403 134.727 263.903 134.977 263.131 135.205C262.373 135.417 261.494 135.606 260.494 135.773C259.509 135.924 258.547 136.061 257.608 136.182C256.684 136.288 255.934 136.379 255.358 136.455C253.964 136.636 252.661 136.932 251.449 137.341C250.252 137.735 249.282 138.333 248.54 139.136C247.813 139.924 247.449 141 247.449 142.364C247.449 144.227 248.138 145.636 249.517 146.591C250.911 147.53 252.676 148 254.812 148ZM285.148 131V152H279.784V117.091H284.966V122.545H285.42C286.239 120.773 287.481 119.348 289.148 118.273C290.814 117.182 292.966 116.636 295.602 116.636C297.966 116.636 300.034 117.121 301.807 118.091C303.58 119.045 304.958 120.5 305.943 122.455C306.928 124.394 307.42 126.848 307.42 129.818V152H302.057V130.182C302.057 127.439 301.345 125.303 299.92 123.773C298.496 122.227 296.542 121.455 294.057 121.455C292.345 121.455 290.814 121.826 289.466 122.568C288.133 123.311 287.08 124.394 286.307 125.818C285.534 127.242 285.148 128.97 285.148 131ZM332.403 117.091V121.636H314.312V117.091H332.403ZM319.585 108.727H324.949V142C324.949 143.515 325.169 144.652 325.608 145.409C326.063 146.152 326.638 146.652 327.335 146.909C328.047 147.152 328.797 147.273 329.585 147.273C330.176 147.273 330.661 147.242 331.04 147.182C331.419 147.106 331.722 147.045 331.949 147L333.04 151.818C332.676 151.955 332.169 152.091 331.517 152.227C330.866 152.379 330.04 152.455 329.04 152.455C327.525 152.455 326.04 152.129 324.585 151.477C323.146 150.826 321.949 149.833 320.994 148.5C320.055 147.167 319.585 145.485 319.585 143.455V108.727ZM350.744 152.818C348.532 152.818 346.525 152.402 344.722 151.568C342.919 150.72 341.487 149.5 340.426 147.909C339.366 146.303 338.835 144.364 338.835 142.091C338.835 140.091 339.229 138.47 340.017 137.227C340.805 135.97 341.858 134.985 343.176 134.273C344.494 133.561 345.949 133.03 347.54 132.682C349.146 132.318 350.759 132.03 352.381 131.818C354.502 131.545 356.222 131.341 357.54 131.205C358.873 131.053 359.843 130.803 360.449 130.455C361.07 130.106 361.381 129.5 361.381 128.636V128.455C361.381 126.212 360.767 124.47 359.54 123.227C358.328 121.985 356.487 121.364 354.017 121.364C351.456 121.364 349.449 121.924 347.994 123.045C346.54 124.167 345.517 125.364 344.926 126.636L339.835 124.818C340.744 122.697 341.956 121.045 343.472 119.864C345.002 118.667 346.669 117.833 348.472 117.364C350.29 116.879 352.078 116.636 353.835 116.636C354.956 116.636 356.244 116.773 357.699 117.045C359.169 117.303 360.585 117.841 361.949 118.659C363.328 119.477 364.472 120.712 365.381 122.364C366.29 124.015 366.744 126.227 366.744 129V152H361.381V147.273H361.108C360.744 148.03 360.138 148.841 359.29 149.705C358.441 150.568 357.313 151.303 355.903 151.909C354.494 152.515 352.775 152.818 350.744 152.818ZM351.562 148C353.684 148 355.472 147.583 356.926 146.75C358.396 145.917 359.502 144.841 360.244 143.523C361.002 142.205 361.381 140.818 361.381 139.364V134.455C361.153 134.727 360.653 134.977 359.881 135.205C359.123 135.417 358.244 135.606 357.244 135.773C356.259 135.924 355.297 136.061 354.358 136.182C353.434 136.288 352.684 136.379 352.108 136.455C350.714 136.636 349.411 136.932 348.199 137.341C347.002 137.735 346.032 138.333 345.29 139.136C344.563 139.924 344.199 141 344.199 142.364C344.199 144.227 344.888 145.636 346.267 146.591C347.661 147.53 349.426 148 351.562 148ZM390.625 165.818C388.034 165.818 385.807 165.485 383.943 164.818C382.08 164.167 380.527 163.303 379.284 162.227C378.057 161.167 377.08 160.03 376.352 158.818L380.625 155.818C381.11 156.455 381.723 157.182 382.466 158C383.208 158.833 384.223 159.553 385.511 160.159C386.814 160.78 388.519 161.091 390.625 161.091C393.443 161.091 395.769 160.409 397.602 159.045C399.436 157.682 400.352 155.545 400.352 152.636V145.545H399.898C399.504 146.182 398.943 146.97 398.216 147.909C397.504 148.833 396.473 149.659 395.125 150.386C393.792 151.098 391.989 151.455 389.716 151.455C386.898 151.455 384.367 150.788 382.125 149.455C379.898 148.121 378.133 146.182 376.83 143.636C375.542 141.091 374.898 138 374.898 134.364C374.898 130.788 375.527 127.674 376.784 125.023C378.042 122.356 379.792 120.295 382.034 118.841C384.277 117.371 386.867 116.636 389.807 116.636C392.08 116.636 393.883 117.015 395.216 117.773C396.564 118.515 397.595 119.364 398.307 120.318C399.034 121.258 399.595 122.03 399.989 122.636H400.534V117.091H405.716V153C405.716 156 405.034 158.439 403.67 160.318C402.322 162.212 400.504 163.598 398.216 164.477C395.943 165.371 393.413 165.818 390.625 165.818ZM390.443 146.636C392.595 146.636 394.413 146.144 395.898 145.159C397.383 144.174 398.511 142.758 399.284 140.909C400.057 139.061 400.443 136.848 400.443 134.273C400.443 131.758 400.064 129.538 399.307 127.614C398.549 125.689 397.428 124.182 395.943 123.091C394.458 122 392.625 121.455 390.443 121.455C388.17 121.455 386.277 122.03 384.761 123.182C383.261 124.333 382.133 125.879 381.375 127.818C380.633 129.758 380.261 131.909 380.261 134.273C380.261 136.697 380.64 138.841 381.398 140.705C382.17 142.553 383.307 144.008 384.807 145.068C386.322 146.114 388.201 146.636 390.443 146.636ZM429.716 152.727C426.564 152.727 423.799 151.977 421.42 150.477C419.057 148.977 417.208 146.879 415.875 144.182C414.557 141.485 413.898 138.333 413.898 134.727C413.898 131.091 414.557 127.917 415.875 125.205C417.208 122.492 419.057 120.386 421.42 118.886C423.799 117.386 426.564 116.636 429.716 116.636C432.867 116.636 435.625 117.386 437.989 118.886C440.367 120.386 442.216 122.492 443.534 125.205C444.867 127.917 445.534 131.091 445.534 134.727C445.534 138.333 444.867 141.485 443.534 144.182C442.216 146.879 440.367 148.977 437.989 150.477C435.625 151.977 432.867 152.727 429.716 152.727ZM429.716 147.909C432.11 147.909 434.08 147.295 435.625 146.068C437.17 144.841 438.314 143.227 439.057 141.227C439.799 139.227 440.17 137.061 440.17 134.727C440.17 132.394 439.799 130.22 439.057 128.205C438.314 126.189 437.17 124.561 435.625 123.318C434.08 122.076 432.11 121.455 429.716 121.455C427.322 121.455 425.352 122.076 423.807 123.318C422.261 124.561 421.117 126.189 420.375 128.205C419.633 130.22 419.261 132.394 419.261 134.727C419.261 137.061 419.633 139.227 420.375 141.227C421.117 143.227 422.261 144.841 423.807 146.068C425.352 147.295 427.322 147.909 429.716 147.909ZM468.903 117.091V121.636H450.812V117.091H468.903ZM456.085 108.727H461.449V142C461.449 143.515 461.669 144.652 462.108 145.409C462.563 146.152 463.138 146.652 463.835 146.909C464.547 147.152 465.297 147.273 466.085 147.273C466.676 147.273 467.161 147.242 467.54 147.182C467.919 147.106 468.222 147.045 468.449 147L469.54 151.818C469.176 151.955 468.669 152.091 468.017 152.227C467.366 152.379 466.54 152.455 465.54 152.455C464.025 152.455 462.54 152.129 461.085 151.477C459.646 150.826 458.449 149.833 457.494 148.5C456.555 147.167 456.085 145.485 456.085 143.455V108.727ZM490.778 152.727C487.506 152.727 484.688 151.955 482.324 150.409C479.96 148.864 478.142 146.735 476.869 144.023C475.597 141.311 474.96 138.212 474.96 134.727C474.96 131.182 475.612 128.053 476.915 125.341C478.233 122.614 480.066 120.485 482.415 118.955C484.778 117.409 487.536 116.636 490.688 116.636C493.142 116.636 495.354 117.091 497.324 118C499.294 118.909 500.907 120.182 502.165 121.818C503.422 123.455 504.203 125.364 504.506 127.545H499.142C498.733 125.955 497.824 124.545 496.415 123.318C495.021 122.076 493.142 121.455 490.778 121.455C488.688 121.455 486.854 122 485.278 123.091C483.718 124.167 482.498 125.689 481.619 127.659C480.756 129.614 480.324 131.909 480.324 134.545C480.324 137.242 480.748 139.591 481.597 141.591C482.46 143.591 483.672 145.144 485.233 146.25C486.809 147.356 488.657 147.909 490.778 147.909C492.172 147.909 493.438 147.667 494.574 147.182C495.71 146.697 496.672 146 497.46 145.091C498.248 144.182 498.809 143.091 499.142 141.818H504.506C504.203 143.879 503.453 145.735 502.256 147.386C501.074 149.023 499.506 150.326 497.551 151.295C495.612 152.25 493.354 152.727 490.778 152.727ZM517.71 131V152H512.347V105.455H517.71V122.545H518.165C518.983 120.742 520.21 119.311 521.847 118.25C523.498 117.174 525.695 116.636 528.438 116.636C530.816 116.636 532.9 117.114 534.688 118.068C536.475 119.008 537.862 120.455 538.847 122.409C539.847 124.348 540.347 126.818 540.347 129.818V152H534.983V130.182C534.983 127.409 534.263 125.265 532.824 123.75C531.4 122.22 529.422 121.455 526.892 121.455C525.134 121.455 523.559 121.826 522.165 122.568C520.786 123.311 519.695 124.394 518.892 125.818C518.104 127.242 517.71 128.97 517.71 131ZM550.159 152V117.091H555.523V152H550.159ZM552.886 111.273C551.841 111.273 550.939 110.917 550.182 110.205C549.439 109.492 549.068 108.636 549.068 107.636C549.068 106.636 549.439 105.78 550.182 105.068C550.939 104.356 551.841 104 552.886 104C553.932 104 554.826 104.356 555.568 105.068C556.326 105.78 556.705 106.636 556.705 107.636C556.705 108.636 556.326 109.492 555.568 110.205C554.826 110.917 553.932 111.273 552.886 111.273Z" fill="#D3B94A"/>
</svg>
