<svg width="144" height="147" viewBox="0 0 144 147" fill="none" xmlns="http://www.w3.org/2000/svg">
<path d="M59.4204 12.4164C61.726 8.29876 64.8551 3.68699 66.3374 2.20464C67.8196 0.722286 69.9605 -0.265935 70.9487 0.0634759C72.1015 0.557592 76.0541 5.33404 79.6773 10.6046C83.3005 16.0399 86.7589 20.1576 87.4177 19.8281C88.2411 19.334 90.3821 15.5458 92.3584 11.4281C94.4994 7.31051 96.8051 3.19288 97.7932 2.36935C98.7813 1.38112 101.087 2.36934 103.557 4.67521C105.863 6.81639 110.31 13.734 113.603 19.9928C117.062 26.2516 120.52 35.4752 121.673 40.4163C122.991 47.0045 123.155 51.9457 121.838 58.5339C120.85 63.4751 117.556 71.7104 114.756 76.6515C111.792 81.5927 106.028 88.0162 101.91 91.1456C97.7932 94.1103 91.0409 97.8985 78.8538 102.181V111.569C78.8538 116.84 79.3479 121.122 80.0067 120.957C80.8301 120.957 83.6298 117.828 86.2649 114.04C89.0646 110.251 94.6641 104.981 98.6166 102.181C105.04 98.0632 107.51 97.4044 117.556 97.2397C125.791 97.2397 131.225 98.2279 136.166 100.534C142.095 103.334 143.248 104.487 143.083 108.769C143.083 111.569 141.271 117.334 139.295 121.946C137.154 126.393 132.872 132.322 129.743 134.957C126.614 137.593 121.179 141.216 117.556 143.193C111.462 146.322 108.498 146.651 71.4428 146.651C32.0818 146.651 31.9171 146.651 23.6826 142.369C19.0713 139.898 13.3071 135.616 10.6721 132.487C8.03704 129.357 4.90792 124.91 3.75509 122.275C2.43756 119.804 0.955363 114.698 0.461292 110.746C-0.526849 103.993 -0.362162 103.663 5.40199 100.863C9.18987 99.0515 15.1187 98.0632 21.5416 98.0632C28.4586 98.0632 34.3875 99.2162 39.3282 101.522C43.4454 103.334 50.6918 109.099 64.0317 123.593V102.181L57.9382 101.028C54.4797 100.369 47.5627 97.4044 42.622 94.4397C37.6813 91.3103 30.929 85.3809 27.4705 80.7692C24.1767 76.1574 20.3888 69.2398 19.236 65.1221C18.0831 61.0045 17.2597 53.2634 17.2597 47.8281C17.2597 42.2281 18.9066 33.1693 20.8829 27.2399C22.8592 21.3105 25.9883 14.0634 27.7999 11.0987C29.6114 8.29875 32.2465 5.33405 33.564 4.51052C35.5403 3.687 38.8341 5.99288 45.0923 12.4164C50.033 17.3576 54.315 21.1458 54.6443 20.6516C54.9737 20.1575 57.1147 16.534 59.4204 12.4164Z" fill="#F6EEC6"/>
<path d="M67.3256 115.192C67.3256 103.004 66.6668 98.063 65.1846 97.7336C64.1965 97.4042 66.1727 97.2395 76.3835 97.4042L75.8895 112.722C75.5601 125.239 76.0542 127.875 78.0304 127.875C79.348 127.875 81.8183 125.898 83.3005 123.592C84.9474 121.287 88.9 116.345 92.0291 112.722C95.1582 109.098 101.087 104.651 105.204 102.839C110.968 100.204 114.756 99.5454 121.673 100.204C126.614 100.698 132.872 102.016 135.672 103.004C139.625 104.651 140.119 105.31 138.142 106.463C136.495 107.561 136.331 108.11 137.648 108.11C138.801 108.11 139.789 109.098 139.789 110.251C139.789 111.239 137.978 116.181 135.672 120.957C132.872 126.722 129.084 131.334 123.65 135.122C118.215 139.239 112.615 141.545 105.204 142.863C96.9698 144.345 91.6997 144.345 82.4771 143.028C73.5838 141.545 68.4784 141.545 61.8908 142.863C57.2795 143.851 49.045 144.345 43.7749 143.686C38.6695 143.192 31.5878 141.545 28.1293 140.063C24.8355 138.581 19.7301 135.616 17.0951 133.31C14.2953 131.004 11.0015 127.051 9.51933 124.745C8.03712 122.439 6.06084 117.498 4.90801 113.875C3.26111 107.781 3.4258 107.122 6.7196 104.322C9.51934 102.181 13.3072 101.357 20.7183 101.522C26.6471 101.522 34.0582 102.675 38.0107 104.322C42.4574 106.298 48.8803 111.734 67.3256 131.992V115.192Z" fill="#D3B94A"/>
<path d="M54.9738 29.0517L61.8907 18.3458C67.9843 8.95764 69.3018 7.8047 71.7722 9.45175C73.4191 10.44 77.3716 15.0517 80.5007 19.8282C83.7945 24.44 87.0884 28.2282 87.9118 28.2282C88.7353 28.2282 91.3703 24.6047 93.676 20.1576C95.9816 15.7106 98.7813 11.7576 99.9342 11.4282C100.922 11.2635 104.051 14.0635 106.522 17.8517C109.157 21.8047 112.615 27.8988 114.427 31.5223C116.568 36.134 117.391 41.4046 117.391 49.6399C117.227 57.2163 116.074 63.6399 113.933 68.581C112.121 72.6987 108.169 78.7928 105.04 82.2516C101.91 85.7104 95.3229 90.4869 90.3822 92.9574C83.1358 96.2515 78.8539 97.2398 69.7959 97.0751C60.9026 97.0751 56.456 96.0868 50.0331 92.7927C45.5864 90.4869 39.3282 86.2045 36.1991 83.0751C33.07 80.1104 28.788 73.5222 26.4823 68.581C23.5179 61.8281 22.3651 56.8869 22.5298 48.8164C22.5298 40.7458 23.8473 34.9811 27.6352 25.7576C30.4349 19.0047 32.7406 13.24 32.7406 12.9106C32.7406 12.7459 34.3875 12.9106 36.5284 13.4047C38.5047 13.8988 43.4455 17.5223 54.9738 29.0517Z" fill="#DB5630"/>
<path d="M61.5615 52.1105C59.9146 52.1105 59.0911 50.4634 59.0911 47.1693C59.0911 43.8752 59.9146 42.2281 61.5615 42.2281C63.2084 42.2281 64.0318 43.8752 64.0318 47.1693C64.0318 50.4634 63.2084 52.1105 61.5615 52.1105Z" fill="#231F12"/>
<path d="M71.937 47.4987C71.7723 45.8517 72.2663 43.8752 73.0898 43.3811C73.9132 42.7223 75.2308 42.2281 76.0542 42.2281C77.0423 42.2281 78.0305 43.8752 78.1952 46.0164C78.5246 47.9928 78.1952 50.2987 77.5364 51.1222C76.8777 51.7811 75.3954 51.9458 74.2426 51.4517C73.2545 50.9575 72.1016 49.1458 71.937 47.4987Z" fill="#231F12"/>
<path d="M85.6062 62.3222C89.2294 59.0281 92.6879 54.9105 93.3467 53.2634C93.8407 51.6164 94.6642 50.6281 94.8289 51.1222C95.1583 51.6164 94.0054 54.5811 92.1938 57.5458C90.5469 60.3458 86.5944 64.4634 83.63 66.2752C80.5008 68.2516 76.0542 70.2281 73.5839 70.8869C70.9488 71.381 66.0081 71.2163 62.3849 70.2281C58.7617 69.2398 53.4916 66.6046 50.6919 64.134C47.7275 61.4987 44.7631 58.2046 44.1043 56.7222C43.2809 55.0752 42.7868 53.4281 42.9515 52.934C43.2809 52.4399 45.0924 54.5811 47.0687 57.8752C49.2097 61.0046 53.327 64.6281 56.1267 65.9457C59.0911 67.2634 63.3731 68.581 65.6787 68.7457C67.9844 68.7457 71.7723 68.9104 74.2426 68.7457C77.0423 68.581 81.489 66.1104 85.6062 62.3222Z" fill="#231F12"/>
</svg>
